<?xml version="1.0" encoding="utf-8"?>
<!-- Generator: Adobe Illustrator 19.2.1, SVG Export Plug-In . SVG Version: 6.00 Build 0)  -->
<svg version="1.1" id="Layer_1" xmlns:sketch="http://www.bohemiancoding.com/sketch/ns"
	 xmlns="http://www.w3.org/2000/svg" xmlns:xlink="http://www.w3.org/1999/xlink" x="0px" y="0px" viewBox="0 0 456 150"
	 style="enable-background:new 0 0 456 150;" xml:space="preserve">
<style type="text/css">
	.st0{fill:none;}
	.st1{fill:#505050;}
</style>
<title>ABC News</title>
<desc>Created with Sketch.</desc>
<g>
	<path class="st0" d="M26.9,52.2c-12.8,0-23.1,10.3-23.1,23C3.8,87.7,14.1,98,26.9,98c4.4,0,8.6-1.3,12-3.5v3.8h10.7L49.7,75
		C49.7,62.5,39.4,52.2,26.9,52.2z M26.9,87.7c-7.1,0-12.7-5.6-12.7-12.6c0-6.9,5.6-12.5,12.6-12.5c6.9,0,12.5,5.6,12.5,12.5
		C39.3,82,33.7,87.6,26.9,87.7z"/>
	<path class="st0" d="M75.3,52.4c-4.7,0-9.1,1.3-12.6,3.8l-0.3-14.9H51.7l0.3,34.4c0,12.8,10.4,23.4,23.3,23.4
		c12.8,0,23.2-10.6,23.2-23.4C98.5,62.9,88.1,52.4,75.3,52.4z M75.6,88.4c-7.2,0-12.9-5.6-12.9-12.7c0-7.1,5.7-12.7,12.9-12.7
		c7.1,0,12.7,5.6,12.7,12.7C88.4,82.8,82.7,88.4,75.6,88.4z"/>
	<path class="st1" d="M26.8,62.6c-7,0-12.6,5.7-12.6,12.5c0,6.9,5.7,12.6,12.7,12.6c6.8-0.1,12.4-5.7,12.4-12.6
		C39.3,68.2,33.7,62.6,26.8,62.6z"/>
	<path class="st1" d="M75.6,63c-7.2,0-12.9,5.6-12.9,12.7c0,7.2,5.7,12.7,12.9,12.7c7.1,0,12.8-5.6,12.7-12.7
		C88.4,68.6,82.7,63,75.6,63z"/>
	<path class="st1" d="M74.7,0.8C33.7,0.8,0.3,34,0.4,75.1c0.1,40.9,33.5,74.2,74.5,74.1c41.1,0,74.4-33.2,74.4-74.3
		C149.2,33.8,115.9,0.6,74.7,0.8z M49.6,98.4H38.9v-3.8c-3.4,2.1-7.6,3.5-12,3.5C14.1,98,3.8,87.7,3.8,75.1c0-12.7,10.2-23,23.1-23
		c12.5,0,22.9,10.3,22.9,22.8L49.6,98.4z M75.3,99.1c-12.9,0-23.3-10.6-23.3-23.4l-0.3-34.4h10.7l0.3,14.9c3.5-2.5,7.9-3.8,12.6-3.8
		c12.8,0,23.2,10.5,23.2,23.3C98.5,88.5,88.1,99.1,75.3,99.1z M145.4,73.1h-10.1c-1.3-5.5-6.3-9.6-12.3-9.6
		c-7.1,0-12.9,5.8-12.9,12.9c0,7.1,5.8,12.8,12.9,12.8c5.4,0,10.1-3.4,11.8-8.2l10.3-0.1c-2.1,10.4-11.1,18-22.1,18
		c-12.5,0-22.5-10.1-22.5-22.5c0-12.3,10.1-22.6,22.5-22.6C134.5,53.7,143.8,62.1,145.4,73.1z"/>
	<path class="st1" d="M402.6,39.4h-0.8c-2.4,0-7.4,0.5-8.6,0.5c-2.8,0-7.2-0.5-8.9-0.5h-0.7v2.2h2.3c3.9,0,5.7,1.4,5.7,5
		c0,2.1-0.8,5.4-2.4,10.5l-13.4,39.5L359,49.8c-0.8-1.9-1.3-4-1.3-5.1c0-2.3,2-3.1,6.2-3.1h3.1v-2.2h-3.1c-1.9,0-11.1,0.5-12.9,0.5
		c-2.1,0-11.3-0.5-13-0.5h-2.1v2.2c6.1,0.1,8.6,2.1,11.4,9.9l6.5,18.1l-10.1,26.7l-17.3-46.9c-0.6-1.7-1-3.5-1-4.6
		c0-2,1.5-3,5.2-3.1v-2.2h-2.4c-1.5,0-8.7,0.5-10.1,0.5c-1.6,0-8.6-0.5-10-0.5h-2.2v2c3.3,0.5,5.1,2.7,7,7.8l24.8,66.1h3.5L356,76
		l14.5,39.4h3.5l21.4-63c2.5-7.6,4.2-10,7.3-10.7V39.4z"/>
	<path class="st1" d="M430.6,66.8c-12.2-5.6-15.5-8.7-15.5-14.4c0-6.3,6-10.6,15.1-10.6c7.2,0,12.8,2.4,16.3,6.3
		c1.7,2.1,2.4,3.8,3.5,7.5h1.9l-0.3-15.8h-2.2c-0.4,0.9-0.9,1-1.9,1c-1.1,0-3.2-0.2-5.2-0.8c-5.1-1.3-9.7-1.8-14.2-1.8
		c-14.2,0-23.8,7.6-23.8,19.4c0,5.2,1.7,8.8,5.6,13.1c2.6,2.4,5.7,5.6,18.4,11.7c13.2,6.2,16.7,9.5,16.7,15.6
		c0,8.2-7.3,13.8-18.2,13.8c-6.4,0-12-1.6-16.3-4.9c-3.5-2.5-5.3-4.9-7.2-9.6l-2,0.5c1,3.5,2,9.1,3.1,14.8l0.2,1.7h2.2
		c1-1,1.5-1.3,3.1-1.3c0.9,0,2.7,0.3,4.4,0.6c5.1,1.1,9.3,1.6,13.4,1.6c16.6,0,27.8-9.2,27.8-22.8C455.6,80.4,446.1,74,430.6,66.8z"
		/>
	<path class="st1" d="M284.9,109.7h-12.6c-4.4,0-6.5-2.1-6.5-6.4V77H278c8.9,0,12.7,2.8,13.5,9.9h2.2V64.2l-2.3-0.2
		c-0.7,5.9-4.1,8.7-10.1,8.7h-15.3V44.1h17.7c8.9,0,12.7,3.2,13.2,11.7h1.9l-0.3-16.4h-5.1c-3.7,0-21.4,0.5-24.1,0.5
		c0,0-18.6-0.5-22-0.5h-5v2.2h1.9c6,0,7.9,1.4,7.9,6.4v57.7c0,5-2,6.5-7.9,6.6h-2.1v2h3.3c4.3-0.1,23.3-0.4,27.2-0.4
		c5.9,0,23.3,0.4,27,0.4l5.3-15.9h-2.3C299.1,106.1,293.1,109.7,284.9,109.7z"/>
	<path class="st1" d="M236.6,39.4c-1.5,0-8.7,0.5-10.1,0.5c-0.8,0-11.6-0.5-11.9-0.5h-2.3v2.2h2.2c7.4,0,10.3,2.6,10.3,8.9v41.7
		l-48.4-52.8h-2.1c-1,0-5.8,0.5-7.4,0.5c-1.1,0-11.5-0.5-12.5-0.5h-1.8v2.2h2.3c2.4,0,6.3,2.1,9.7,5.6v56.9c0,6-1.8,7.3-10.3,8.2v2
		h2c1.8,0,10-0.4,11.1-0.4c1.9,0,10.7,0.4,12.5,0.4h2.3v-2h-2.1c-8.3,0-10.6-2.6-10.6-12.6V52.4l57.6,62.9h2.4V49.7
		c0-5.8,1.7-7.7,8.4-8.1l-0.1-2.2H236.6z"/>
</g>
</svg>
