<?xml version="1.0" encoding="utf-8"?>
<!-- Generator: Adobe Illustrator 19.2.1, SVG Export Plug-In . SVG Version: 6.00 Build 0)  -->
<svg version="1.1" id="Layer_1" xmlns:sketch="http://www.bohemiancoding.com/sketch/ns"
	 xmlns="http://www.w3.org/2000/svg" xmlns:xlink="http://www.w3.org/1999/xlink" x="0px" y="0px" viewBox="0 0 177 31"
	 style="enable-background:new 0 0 177 31;" xml:space="preserve">
<style type="text/css">
	.st0{fill:#505050;}
</style>
<title>CNBC</title>
<desc>Created with Sketch.</desc>
<g id="Page-1" sketch:type="MSPage">
	<g id="CNBC" sketch:type="MSLayerGroup">
		<path id="Fill-2" sketch:type="MSShapeGroup" class="st0" d="M31.5,10.7c-0.6-3.1-3.2-4-6.1-4.3c-9.3-0.9-11,6.1-11,9.1
			c0,5,1.5,9.2,10.6,9.2c1.7,0,6.3-1.7,6.3-4.6h13.1C44,28.5,30,30.5,23.8,30.5c-12.7,0-23.6-2.4-23.1-14.9
			c0.4-9,8.8-15.2,25.6-14.9c9.4,0.2,18.4,3.1,18.4,9.9H31.5"/>
		<path id="Fill-3" sketch:type="MSShapeGroup" class="st0" d="M163.3,10.7c-0.6-3.1-3.2-4-6.1-4.3c-9.3-0.9-11,6.1-11,9.1
			c0,5,1.5,9.2,10.6,9.2c1.7,0,6.3-1.7,6.3-4.6h13.2c-0.5,8.4-14.6,10.4-20.7,10.4c-12.7,0-23.6-2.4-23.1-14.9
			c0.4-9,8.8-15.2,25.6-14.9c9.4,0.2,18.4,3.1,18.4,9.9H163.3"/>
		<path id="Fill-4" sketch:type="MSShapeGroup" class="st0" d="M47.1,1.4h17.1l14.6,20.5h0.1V1.4h10.9v28.4H73.5L58.2,9.3h-0.1v20.5
			H47.1V1.4"/>
		<path id="Fill-5" sketch:type="MSShapeGroup" class="st0" d="M93.2,1.4H114c10,0,15.8,2.8,15.8,7c0,2.5-2.5,5.6-7.9,6.5v0.1
			c6.6,0.4,9,4.6,9,7.1c0,5-5.7,7.8-16.9,7.8H93.2V1.4L93.2,1.4z M105.2,12.4h3.4c5.3,0,8.1-0.4,8.1-2.6c0-2.4-2.3-3.2-7.1-3.2h-4.4
			V12.4L105.2,12.4z M105.2,23.8h3.4c6.4,0,8.7-0.7,8.7-2.9c0-2.4-3-3.2-7.7-3.2h-4.4V23.8L105.2,23.8z"/>
	</g>
</g>
</svg>
