<?xml version="1.0" encoding="utf-8"?>
<!-- Generator: Adobe Illustrator 19.2.1, SVG Export Plug-In . SVG Version: 6.00 Build 0)  -->
<svg version="1.1" id="Layer_1" xmlns:sketch="http://www.bohemiancoding.com/sketch/ns"
	 xmlns="http://www.w3.org/2000/svg" xmlns:xlink="http://www.w3.org/1999/xlink" x="0px" y="0px" viewBox="0 0 485 122"
	 style="enable-background:new 0 0 485 122;" xml:space="preserve">
<style type="text/css">
	.st0{fill:#505050;}
</style>
<title>Forbes</title>
<desc>Created with Sketch.</desc>
<g id="FINAL" sketch:type="MSPage">
	<g id="Logos" transform="translate(-1287.000000, -172.000000)" sketch:type="MSArtboardGroup">
		<path id="Forbes" sketch:type="MSShapeGroup" class="st0" d="M1580.6,207.2c-7.8,0-13.9,1.7-20,5c0-17.7,0-33.8,0.6-39.4
			l-37.2,6.7v3.3l3.9,0.6c5,1.1,6.7,3.9,7.8,10.5c1.1,13.3,0.6,84.3,0,95.9c10,2.2,20.5,3.9,31.1,3.9c29.4,0,47.1-18.3,47.1-47.1
			C1613.8,223.8,1599.4,207.2,1580.6,207.2L1580.6,207.2z M1567.8,287.6c-2.2,0-5,0-6.7-0.6c-0.6-7.8-1.1-40.5-0.6-69.3
			c3.3-1.1,5.5-1.7,8.3-1.7c12.2,0,18.9,14.4,18.9,32.2C1587.8,270.4,1579.5,287.6,1567.8,287.6z M1384.6,172.8H1287v5l5.5,0.6
			c7.2,1.1,10,5.5,11.1,16.1c1.7,20,1.1,56,0,73.2c-1.1,10.5-3.9,15.5-11.1,16.1l-5.5,1.1v4.4h62.7v-4.4l-6.7-1.1
			c-7.2-0.6-10-5.5-11.1-16.1c-0.6-7.2-1.1-18.9-1.1-33.3l13.3,0.6c8.3,0,12.2,6.7,13.9,16.1h5v-39.4h-5
			c-1.7,9.4-5.5,16.1-13.9,16.1l-13.3,0.6c0-18.9,0.6-36.6,1.1-47.1h19.4c15,0,22.7,9.4,28.3,26.1l5.5-1.7L1384.6,172.8z
			 M1416.7,204.8c27.7,0,41.6,18.9,41.6,43.8c0,23.8-15.5,43.8-43.3,43.8s-41.6-18.9-41.6-43.8
			C1373.5,224.8,1389,204.8,1416.7,204.8z M1415.1,210.4c-12.2,0-15.5,16.6-15.5,38.3c0,21.1,5.5,38.3,16.6,38.3
			c12.8,0,16.1-16.6,16.1-38.3C1432.3,227.6,1426.7,210.4,1415.1,210.4z M1623.3,249.2c0-22.7,14.4-44.4,42.7-44.4
			c23.3,0,34.4,17.2,34.4,39.9h-51.6c-0.6,20.5,9.4,35.5,29.4,35.5c8.9,0,13.3-2.2,18.9-6.1l2.2,2.8c-5.5,7.8-17.7,15.5-33.3,15.5
			C1641,292.4,1623.3,274.7,1623.3,249.2z M1648.8,238.6l26.1-0.6c0-11.1-1.7-27.7-11.1-27.7S1649.3,225.9,1648.8,238.6z
			 M1767,209.3c-6.7-2.8-15.5-4.4-25.5-4.4c-20.5,0-33.3,12.2-33.3,26.6c0,14.4,9.4,20.5,22.7,25c13.9,5,17.7,8.9,17.7,15.5
			c0,6.7-5,12.8-13.9,12.8c-10.5,0-18.3-6.1-24.4-22.7l-3.9,1.1l0.6,24.4c6.7,2.8,18.9,5,29.4,5c21.6,0,35.5-11.1,35.5-28.3
			c0-11.7-6.1-18.3-20.5-23.9c-15.5-6.1-21.1-10-21.1-17.2c0-7.2,5-12.2,11.6-12.2c10,0,16.6,6.1,21.6,21.1l3.9-1.1L1767,209.3z
			 M1531.5,207.3c-9.4-5.5-26.1-2.8-34.9,17.2l0.6-19.4l-37.2,7.2v3.3l3.9,0.6c5,0.6,7.2,3.3,7.8,10.5c1.1,13.3,0.6,36.6,0,48.2
			c-0.6,6.7-2.8,10-7.8,10.5l-3.9,0.6v4.4h51.6v-4.4l-6.7-0.6c-5.5-0.6-7.2-3.9-7.8-10.5c-1.1-10.5-1.1-31.6-0.6-44.9
			c2.8-3.9,15-7.2,26.1,0L1531.5,207.3z"/>
	</g>
</g>
</svg>
