<?xml version="1.0" encoding="UTF-8" standalone="no"?>
<svg width="198px" height="69px" viewBox="0 0 198 69" version="1.1" xmlns="http://www.w3.org/2000/svg" xmlns:xlink="http://www.w3.org/1999/xlink">
    <!-- Generator: Sketch Beta 3.7 (28138) - http://www.bohemiancoding.com/sketch -->
    <title>Page 1</title>
    <desc>Created with Sketch Beta.</desc>
    <defs></defs>
    <g id="v1.2" stroke="none" stroke-width="1" fill="none" fill-rule="evenodd">
        <g id="Acorns-Mobile" transform="translate(-61.000000, -3953.000000)" fill="#505050">
            <g id="Page-1" transform="translate(61.000000, 3953.000000)">
                <path d="M77.7666704,2.7336511 C77.9467742,2.7336511 78.145155,2.76018956 78.3568627,2.81326648 L78.9478165,2.96150275 L78.9478165,0.179513736 L78.5662858,0.10331044 C78.2239742,0.0346895604 77.9071742,0.000189560439 77.625405,0.000189560439 L76.7781935,0.000189560439 C73.4913935,0.000189560439 70.3892665,1.02571154 67.5582473,3.04945879 C65.1990012,4.73616758 63.3518896,7.35210165 62.0637473,10.8293984 C62.0595588,10.680783 62.0553704,10.5295137 62.0504204,10.3759698 C62.0191973,9.34210714 61.9879742,8.27715659 61.9563704,7.18149725 C61.9251473,6.08356319 61.8935435,5.06486538 61.8623204,4.12388736 C61.8307165,3.17760165 61.7823588,2.37651923 61.7187704,1.74300824 L61.6761242,1.31611813 L58.6497704,1.31611813 L58.7019358,1.8366511 C58.7640012,2.45575549 58.8268281,3.24129396 58.8888935,4.17127747 C58.9509588,5.10429396 58.998555,6.09455769 59.0290165,7.1151511 L59.1234473,10.1701071 C59.1542896,11.1626456 59.1702819,12.0114973 59.1702819,12.6935357 L59.1702819,45.5011401 L62.1920665,45.5011401 L62.1920665,22.6564533 C62.1920665,20.3241016 62.4879242,17.9432225 63.072405,15.5794038 C63.6534588,13.227717 64.5676858,11.0610412 65.7891935,9.14003571 C67.0004204,7.23533242 68.5661435,5.67221703 70.4421935,4.49353022 C72.3014896,3.32545879 74.5918165,2.7336511 77.2488242,2.7336511 L77.7666704,2.7336511 Z M125.093582,31.4235478 C124.178594,33.920817 122.834098,36.1280588 121.09779,37.9834764 C119.360721,39.838894 117.227652,41.3360423 114.75684,42.4324599 C112.287552,43.5281192 109.454248,44.0835313 106.336509,44.0835313 C103.218771,44.0835313 100.402602,43.5284984 97.9656785,42.4335973 C95.5253285,41.3371797 93.40749,39.8400313 91.6696592,37.9838555 C89.9333515,36.1280588 88.5888554,33.9204379 87.6738669,31.4231687 C86.7558323,28.918317 86.2905323,26.1901632 86.2905323,23.3149104 C86.2905323,20.5014544 86.7558323,17.8047676 87.6738669,15.2999159 C88.5888554,12.8018885 89.9333515,10.5946467 91.6696592,8.73998736 C93.4052054,6.8849489 95.5219015,5.40448187 97.9611092,4.33839396 C100.399175,3.27382253 103.216867,2.73357527 106.336509,2.73357527 C109.456152,2.73357527 112.290978,3.27382253 114.761028,4.33953132 C117.231078,5.40524011 119.362244,6.88570714 121.09779,8.73998736 C122.834478,10.5954049 124.178594,12.8022676 125.093582,15.2999159 C126.011236,17.8043885 126.476536,20.5006962 126.476536,23.3149104 C126.476536,26.1913005 126.011236,28.9194544 125.093582,31.4235478 Z M127.818367,13.8827621 C126.701952,11.0469379 125.098532,8.5735533 123.052659,6.53047088 C121.007548,4.48928407 118.531405,2.87271264 115.693152,1.72663022 C112.856421,0.580926923 109.708602,0.000113736263 106.336509,0.000113736263 C102.963655,0.000113736263 99.8306862,0.581306044 97.0251785,1.72738846 C94.2177669,2.87422912 91.7583785,4.49042143 89.71479,6.53047088 C87.6692977,8.5735533 86.0658785,11.0469379 84.9490823,13.8827621 C83.8338092,16.7140368 83.2687477,19.8868995 83.2687477,23.3149104 C83.2687477,26.7417841 83.8338092,29.9305698 84.9483208,32.7917951 C86.0651169,35.6587071 87.6677746,38.1639379 89.7121246,40.2369709 C91.7564746,42.3100038 94.2170054,43.9424984 97.0255592,45.0900973 C99.8314477,46.2361797 102.964036,46.817372 106.336509,46.817372 C109.70784,46.817372 112.855659,46.2365588 115.693152,45.0904764 C118.53369,43.9432566 121.010594,42.310383 123.055325,40.2369709 C125.099675,38.1635588 126.702332,35.6587071 127.819509,32.7917951 C128.93364,29.9294324 129.498321,26.7410258 129.498321,23.3149104 C129.498321,19.8865203 128.933259,16.7132786 127.818367,13.8827621 Z M80.7282554,59.8555286 C80.5283515,59.5537484 80.2549592,59.308078 79.9160746,59.1257209 C79.57719,58.9437429 79.1598669,58.8512374 78.6759092,58.8512374 C78.0335515,58.8512374 77.4513554,59.0457264 76.9453131,59.4290176 C76.5976708,59.6921275 76.3181862,60.035611 76.1099054,60.4534022 C76.0836323,60.3783363 76.0546938,60.3044077 76.0238515,60.2327538 C75.9061938,59.9616824 75.7493169,59.7216989 75.5562669,59.5188692 C75.3601708,59.3126275 75.1153362,59.1473308 74.8286169,59.0286659 C74.3206708,58.8178747 73.5964477,58.7776879 72.9586592,58.9941659 C72.67689,59.0897044 72.4137785,59.2318747 72.1761785,59.4161275 C71.9408631,59.5984846 71.7268708,59.8225451 71.5391515,60.0818637 C71.5197323,60.1091604 71.5003131,60.1368363 71.4812746,60.1648912 L71.4652823,59.6345011 C71.4603323,59.4824736 71.4527169,59.355089 71.4420554,59.2542429 L71.4218746,59.0555835 L70.6542438,59.0555835 L70.6786131,59.2986 C70.6881323,59.3937593 70.6976515,59.5135615 70.7071708,59.6564901 C70.71669,59.7997978 70.7239246,59.9506879 70.7284938,60.1084022 L70.7433438,60.5830615 C70.7482938,60.7354681 70.7505785,60.8647484 70.7505785,60.970144 L70.7505785,66.2126275 L71.5166862,66.2126275 L71.5166862,62.6341055 C71.5166862,62.1446604 71.5795131,61.7037429 71.7036438,61.3231055 C71.8262515,60.9470176 71.9953131,60.6247648 72.20664,60.3646879 C72.41454,60.1091604 72.6605169,59.9105011 72.9377169,59.7743967 C73.2133938,59.6394297 73.5130592,59.5708088 73.8283362,59.5708088 C74.1824515,59.5708088 74.4741208,59.6443582 74.6942054,59.7895615 C74.9230477,59.9400725 75.1042938,60.1288747 75.2326131,60.3506604 C75.3651208,60.5800286 75.4572669,60.8401055 75.5063862,61.1236879 C75.5574092,61.4224352 75.5833015,61.7045011 75.5833015,61.9626824 L75.5833015,66.2126275 L76.3494092,66.2126275 L76.3494092,62.6341055 C76.3494092,62.1446604 76.4145208,61.7045011 76.54284,61.3257593 C76.6703977,60.9485341 76.8425054,60.6255231 77.0542131,60.3646879 C77.2621131,60.1091604 77.5077092,59.9105011 77.78529,59.7743967 C78.0609669,59.6394297 78.3606323,59.5708088 78.6759092,59.5708088 C79.0307862,59.5708088 79.3251208,59.6447374 79.5509169,59.7903198 C79.7854708,59.9423473 79.9747131,60.1322868 80.1125515,60.355589 C80.2541977,60.5860945 80.3554823,60.8465505 80.41374,61.1308912 C80.4735208,61.4258473 80.5043631,61.7056385 80.5043631,61.9626824 L80.5043631,66.2126275 L81.27009,66.2126275 L81.27009,61.9334901 C81.27009,61.5683967 81.2289669,61.2033033 81.1474823,60.8476879 C81.0637131,60.4829736 80.9228285,60.1489681 80.7282554,59.8555286 Z M67.9361608,63.8281846 C67.8006069,64.1970692 67.6018454,64.5231132 67.3455877,64.7968385 C67.0885685,65.0709429 66.7729108,65.2919703 66.4069915,65.4538549 C66.0418338,65.6157396 65.6214646,65.6980088 65.1569262,65.6980088 C64.6931492,65.6980088 64.2754454,65.6157396 63.9152377,65.4542341 C63.5538877,65.2923495 63.2405146,65.071322 62.9831146,64.7968385 C62.7264762,64.5231132 62.5277146,64.1970692 62.3925415,63.8281846 C62.2554646,63.4558879 62.1861646,63.0494703 62.1861646,62.6199264 C62.1861646,62.1998604 62.2554646,61.7983714 62.3925415,61.4256956 C62.5277146,61.056811 62.7264762,60.730767 62.9831146,60.4570418 C63.2389915,60.1836956 63.5519838,59.965322 63.9133338,59.8076077 C64.2739223,59.6502725 64.6923877,59.5710363 65.1569262,59.5710363 C65.6222262,59.5710363 66.0433569,59.6506516 66.4088954,59.8079868 C66.7748146,59.9660802 67.0900915,60.1844538 67.3452069,60.4562835 C67.6018454,60.730767 67.8009877,61.056811 67.9361608,61.4256956 C68.0732377,61.7983714 68.1425377,62.1998604 68.1425377,62.6199264 C68.1425377,63.0494703 68.0732377,63.4558879 67.9361608,63.8281846 Z M67.8619108,59.908833 C67.5302608,59.5778604 67.1281685,59.3158879 66.6681992,59.1297396 C65.7486415,58.7597176 64.5614031,58.7600967 63.6521262,59.1301187 C63.1967262,59.316267 62.79768,59.5782396 62.4664108,59.908833 C62.1339992,60.2401846 61.8735531,60.6412945 61.6919262,61.1011681 C61.5114415,61.5583879 61.4200569,62.0694429 61.4200569,62.6199264 C61.4200569,63.1696516 61.5114415,63.6829813 61.6915454,64.1451297 C61.8727915,64.6091736 62.1328569,65.0152121 62.4652685,65.3514923 C62.7972992,65.6877725 63.1967262,65.9523989 63.6521262,66.1381681 C64.1063838,66.3235582 64.6128069,66.4175802 65.1569262,66.4175802 C65.7006646,66.4175802 66.2089915,66.3239374 66.6681992,66.1385473 C67.1281685,65.9531571 67.5306415,65.6885308 67.8634338,65.3514923 C68.1954646,65.0152121 68.4559108,64.6091736 68.6371569,64.1447505 C68.81688,63.6833604 68.9082646,63.1704099 68.9082646,62.6199264 C68.9082646,62.0690637 68.81688,61.5580088 68.6367762,61.1004099 C68.4551492,60.6412945 68.1943223,60.2401846 67.8619108,59.908833 Z M54.6176146,54.6642264 C54.38268,54.7362593 54.16488,54.8628857 53.9691646,55.0410725 C53.7742108,55.2188802 53.6146685,55.4630341 53.4954877,55.7651934 C53.3782108,56.0624242 53.3188108,56.4335835 53.3188108,56.8676769 L53.3188108,59.0555835 L51.9130108,59.0555835 L51.9130108,59.7751549 L53.3336608,59.7751549 L53.3336608,66.2126275 L54.0993877,66.2126275 L54.0993877,59.7751549 L55.9301262,59.7751549 L55.9301262,59.0555835 L54.0993877,59.0555835 L54.0993877,56.8536495 C54.0993877,56.6474077 54.1222338,56.4430615 54.1671646,56.2451604 C54.2098108,56.0582538 54.2806338,55.8884077 54.3781108,55.7413088 C54.4706377,55.6006549 54.5959108,55.484644 54.7505031,55.3951714 C54.9652569,55.2708198 55.2976685,55.2404901 55.5874338,55.2837099 C55.6814838,55.2981165 55.7755338,55.3144187 55.8695838,55.3329956 L56.0797685,55.3746989 L56.2358838,54.7161659 L56.0355992,54.6562648 C55.6418838,54.5391165 55.1137569,54.5106824 54.6176146,54.6642264 Z M60.4692762,58.8511236 L60.33753,58.8511236 C59.7945531,58.8511236 59.28318,59.0202115 58.8171185,59.3527005 C58.5680954,59.52975 58.3548646,59.7674588 58.1778069,60.0624148 L58.1648608,59.6343874 C58.1599108,59.4823599 58.1519146,59.3557335 58.1416338,59.2545082 L58.1218338,59.0554698 L57.3530608,59.0554698 L57.3778108,59.2992445 C57.3877108,59.3940247 57.39723,59.5134478 57.4067492,59.6563764 C57.4162685,59.7996841 57.4235031,59.9505742 57.4280723,60.1082885 L57.4433031,60.5829478 C57.4474915,60.7353544 57.4501569,60.8646346 57.4501569,60.9700302 L57.4501569,66.2128929 L58.2158838,66.2128929 L58.2158838,62.5176016 C58.2158838,62.167294 58.2608146,61.8094038 58.3487723,61.4537885 C58.4352069,61.1038599 58.5711415,60.7819863 58.7527685,60.4972665 C58.9294454,60.21975 59.1575262,59.9922775 59.4305377,59.821294 C59.6959338,59.655239 60.0260608,59.5706951 60.4106377,59.5706951 L60.49098,59.5706951 C60.5073531,59.5706951 60.5260108,59.5733489 60.5458108,59.5786566 L60.8230108,59.6491731 L60.8230108,58.9064753 L60.6455723,58.8700797 C60.5831262,58.8575687 60.5237262,58.8511236 60.4692762,58.8511236 Z M145.07441,61.2109236 C144.785787,61.0035445 144.448806,60.8272533 144.072225,60.6865995 C143.705163,60.5497368 143.32211,60.4291764 142.93144,60.3279511 C142.526302,60.2301379 142.14934,60.1266379 141.811217,60.0208632 C141.48566,59.9188797 141.205794,59.7926324 140.979617,59.6459126 C140.764483,59.5067753 140.594279,59.3202478 140.473956,59.0916379 C140.352871,58.8622698 140.291567,58.5449456 140.291567,58.1476269 C140.291567,57.7973192 140.365817,57.4970555 140.511652,57.2555555 C140.660533,57.0091269 140.850537,56.808572 141.076333,56.6595775 C141.307079,56.5083082 141.564479,56.3976049 141.84206,56.3312588 C142.126494,56.2633962 142.399887,56.2292753 142.655002,56.2292753 C143.207117,56.2292753 143.683079,56.3270885 144.06956,56.5204401 C144.456421,56.7141709 144.809013,57.0170885 145.118579,57.4212313 L145.21301,57.5444456 L145.919717,57.1349951 L145.809675,56.978039 C145.108679,55.977539 144.047094,55.4706544 142.655002,55.4706544 C142.269283,55.4706544 141.882802,55.5267643 141.50546,55.6382258 C141.125071,55.7500665 140.780094,55.9172588 140.480048,56.1348742 C140.175433,56.3559016 139.928313,56.6383467 139.745925,56.9734896 C139.561633,57.3116654 139.467963,57.7142918 139.467963,58.1692368 C139.467963,58.621528 139.542213,59.0067148 139.688048,59.3130445 C139.833502,59.6201324 140.036071,59.8817258 140.290425,60.0902423 C140.539448,60.2942093 140.83226,60.4617808 141.160483,60.5884071 C141.477663,60.7112423 141.820356,60.8245995 142.183229,60.9262038 C142.509167,61.0111269 142.860237,61.1070445 143.236056,61.2135775 C143.598929,61.3166984 143.934767,61.4516654 144.234813,61.6154456 C144.523056,61.7731599 144.765606,61.9862258 144.95561,62.2481984 C145.13876,62.5018302 145.231667,62.8411434 145.231667,63.2562808 C145.231667,63.6092423 145.156275,63.9261874 145.007775,64.198017 C144.85661,64.474017 144.657467,64.7071764 144.415679,64.8902918 C144.169702,65.0768192 143.893644,65.2182313 143.59474,65.3111159 C143.293552,65.4051379 142.991602,65.4529071 142.697648,65.4529071 C141.408363,65.4529071 140.449967,64.9877258 139.76801,64.0308247 L139.668248,63.8909291 L138.990479,64.3435995 L139.09519,64.4910775 C139.495379,65.0552093 140.01056,65.4881654 140.626263,65.7778137 C141.237779,66.0655665 141.927352,66.211528 142.676325,66.211528 C143.134771,66.211528 143.56999,66.1436654 143.97056,66.0102148 C144.374175,65.8752478 144.734383,65.6777258 145.041283,65.4225775 C145.351229,65.1651544 145.600252,64.847072 145.781117,64.47705 C145.962744,64.1055115 146.05489,63.6801379 146.05489,63.2138192 C146.05489,62.7448467 145.96541,62.3422203 145.787971,62.0176929 C145.612056,61.6969566 145.372171,61.425506 145.07441,61.2109236 Z M135.785849,56.8708995 C135.500653,56.4504544 135.113791,56.1081082 134.635545,55.853339 C134.156157,55.5989489 133.554541,55.4700478 132.846691,55.4700478 C132.403476,55.4700478 131.969399,55.5375313 131.555883,55.6706027 C131.142368,55.8036742 130.75246,56.0027126 130.397203,56.2616522 C130.043468,56.5202126 129.72286,56.8375368 129.444137,57.2049049 C129.309726,57.3815753 129.190164,57.5711357 129.085833,57.7720698 C129.080122,57.575306 129.07403,57.3736137 129.068318,57.1654764 C129.061083,56.9171522 129.053849,56.6858885 129.046995,56.4724434 C129.03976,56.2574819 129.028718,56.0739874 129.014249,55.9276467 L128.976172,55.4704269 L128.152187,55.4704269 L128.193691,55.9617676 C128.207399,56.1028005 128.221868,56.2790918 128.235957,56.489883 C128.249664,56.7014324 128.260326,56.9239764 128.26756,57.1563775 L128.288883,57.8501687 C128.295737,58.0757456 128.299545,58.2664434 128.299545,58.4211247 L128.299545,66.2094049 L129.121626,66.2094049 L129.121626,60.8550808 C129.121626,60.1233775 129.22253,59.4640863 129.42091,58.8954049 C129.61891,58.3282401 129.887733,57.8403115 130.220907,57.4456467 C130.550653,57.0551522 130.946272,56.7510973 131.396722,56.5422016 C131.847172,56.333306 132.335318,56.2275313 132.846691,56.2275313 C133.420891,56.2275313 133.898376,56.3443005 134.266199,56.5740478 C134.640495,56.8083445 134.940922,57.1025423 135.159864,57.4479214 C135.381091,57.7974709 135.534541,58.1932731 135.615264,58.6243335 C135.698272,59.0675258 135.740157,59.4875918 135.740157,59.8731577 L135.740157,66.2094049 L136.562237,66.2094049 L136.562237,59.830317 C136.562237,59.3078885 136.503599,58.7847016 136.387464,58.2755423 C136.269045,57.7584214 136.066857,57.2860368 135.785849,56.8708995 Z M125.424014,55.4705786 L125.232106,55.4705786 C124.472852,55.4705786 123.756625,55.7079082 123.103606,56.1761225 C122.629168,56.516194 122.245733,57.0162544 121.958633,57.6683423 C121.953683,57.5049412 121.949114,57.338128 121.944164,57.1679027 C121.936929,56.9188203 121.929695,56.6871775 121.922841,56.4733533 C121.915606,56.2580126 121.904564,56.0748973 121.890095,55.9285566 L121.852018,55.4705786 L121.028033,55.4705786 L121.069537,55.9626775 C121.083245,56.1037104 121.097714,56.2796225 121.111802,56.4907929 C121.12551,56.7023423 121.136172,56.9245071 121.143406,57.1569082 L121.164729,57.8506995 C121.171583,58.0766555 121.175391,58.2669742 121.175391,58.4220346 L121.175391,66.2095566 L121.997472,66.2095566 L121.997472,60.6850071 C121.997472,60.1599247 122.064106,59.624606 122.195091,59.0938368 C122.324933,58.5664797 122.529025,58.0812049 122.801656,57.6512819 C123.070479,57.2274247 123.418122,56.8793918 123.834302,56.6174192 C124.24401,56.3592379 124.750052,56.2284412 125.338722,56.2284412 L125.455998,56.2284412 C125.490268,56.2284412 125.530248,56.2337489 125.573656,56.2443643 L125.792598,56.2981995 L125.792598,55.5232764 L125.650191,55.4952214 C125.56566,55.4785401 125.491791,55.4705786 125.424014,55.4705786 Z M117.370707,62.6331198 C117.167376,63.1896692 116.868853,63.681389 116.482753,64.0950099 C116.097414,64.5082516 115.623357,64.841878 115.073526,65.086411 C114.525599,65.3305648 113.895426,65.4541582 113.201283,65.4541582 C112.50676,65.4541582 111.880395,65.3305648 111.339703,65.0867901 C110.796726,64.841878 110.326095,64.5086308 109.940757,64.0950099 C109.555037,63.6817681 109.256133,63.1900484 109.052803,62.6331198 C108.84833,62.0735374 108.74476,61.463911 108.74476,60.8205429 C108.74476,60.1915813 108.84833,59.5891582 109.052803,59.0291967 C109.256133,58.4726473 109.555037,57.9809275 109.940757,57.5673066 C110.326095,57.154444 110.796345,56.8246088 111.33818,56.5869 C111.880014,56.3495703 112.50676,56.229389 113.201283,56.229389 C113.895426,56.229389 114.52636,56.3499495 115.07543,56.5872791 C115.624118,56.8249879 116.097414,57.154444 116.482753,57.5673066 C116.868853,57.9813066 117.167376,58.4730264 117.370707,59.0291967 C117.57518,59.5891582 117.67913,60.1915813 117.67913,60.8205429 C117.67913,61.463911 117.57518,62.0739165 117.370707,62.6331198 Z M117.023445,56.9728451 C116.555099,56.5042516 115.988514,56.1330923 115.339303,55.8703615 C114.690853,55.6076308 113.971199,55.4741802 113.201283,55.4741802 C112.430607,55.4741802 111.71476,55.6076308 111.073164,55.8703615 C110.430807,56.1334714 109.86803,56.5042516 109.400064,56.9728451 C108.931337,57.4421967 108.564276,58.0101198 108.30916,58.6603121 C108.054045,59.3089879 107.924964,60.0357626 107.924964,60.8205429 C107.924964,61.6053231 108.054045,62.3351308 108.30878,62.9906308 C108.563895,63.6484055 108.930957,64.2231527 109.398922,64.6993286 C109.866887,65.1751253 110.430045,65.5500758 111.073164,65.8131857 C111.71476,66.0762956 112.430607,66.209367 113.201283,66.209367 C113.971199,66.209367 114.690853,66.0762956 115.339303,65.8135648 C115.989276,65.5504549 116.55586,65.1755044 117.024207,64.6993286 C117.492172,64.223911 117.858853,63.6487846 118.11473,62.9906308 C118.369464,62.3339934 118.498545,61.6038066 118.498545,60.8205429 C118.498545,60.0372791 118.369464,59.3105044 118.114349,58.6603121 C117.858472,58.0097407 117.49141,57.4418176 117.023445,56.9728451 Z M105.158942,64.4015291 C104.79645,64.7510786 104.363896,65.0172214 103.873465,65.191617 C103.378085,65.3682874 102.86595,65.458139 102.350769,65.458139 C101.685946,65.458139 101.082046,65.3349247 100.555823,65.0915291 C100.027696,64.8469962 99.5715346,64.5145071 99.2002846,64.1020236 C98.8282731,63.6887819 98.5362231,63.196683 98.3325115,62.638617 C98.1280385,62.0797929 98.0244692,61.4845731 98.0244692,60.8700181 C98.0244692,60.2554632 98.1280385,59.6606225 98.3325115,59.1010401 C98.5362231,58.5429742 98.8286538,58.0467049 99.2014269,57.6262599 C99.5730577,57.2069522 100.029219,56.8668808 100.557346,56.6155236 C101.083569,56.3660621 101.686708,56.2394357 102.350769,56.2394357 C102.861762,56.2394357 103.359808,56.3417984 103.8312,56.5438698 C104.302592,56.7463203 104.718773,57.0333148 105.069462,57.39765 L105.186358,57.5193478 L105.8112,56.9673478 L105.684023,56.8354137 C105.272412,56.4085236 104.769796,56.0730016 104.190265,55.8375676 C103.611496,55.6032709 102.992746,55.484606 102.350769,55.484606 C101.607508,55.484606 100.91565,55.6218478 100.294615,55.8925401 C99.6747231,56.1628533 99.1271769,56.5408368 98.6668269,57.0162544 C98.2060962,57.4920511 97.8436038,58.0664192 97.5888692,58.7226775 C97.3345154,59.3774192 97.2054346,60.1000236 97.2054346,60.8700181 C97.2054346,61.6400126 97.3345154,62.3622379 97.5888692,63.0169797 C97.8439846,63.6743753 98.2068577,64.2453313 98.6679692,64.7139247 C99.1279385,65.182139 99.6758654,65.5529192 100.296138,65.8160291 C100.916792,66.0795181 101.607888,66.2129687 102.350769,66.2129687 C102.961523,66.2129687 103.569992,66.1132599 104.158281,65.9164962 C104.755327,65.7174577 105.281931,65.3917929 105.724385,64.9489797 L105.852323,64.8208368 L105.279265,64.2855181 L105.158942,64.4015291 Z M94.0193481,61.3312945 C94.0193481,61.7987505 93.9637558,62.2836462 93.8537135,62.7727121 C93.745575,63.2523 93.5506212,63.6973879 93.2745635,64.0954648 C93.0004096,64.4901297 92.6303019,64.8199648 92.1741404,65.0747341 C91.7214058,65.3283659 91.1422558,65.4568879 90.4530635,65.4568879 C90.171675,65.4568879 89.8682019,65.4159429 89.5506404,65.334811 C89.2380288,65.2548165 88.9486442,65.1270527 88.6904827,64.9541736 C88.4376519,64.785844 88.2270865,64.5583714 88.0644981,64.277822 C87.9038135,64.0014429 87.8223288,63.6477231 87.8223288,63.2265198 C87.8223288,62.6479813 87.968925,62.1854538 88.2583096,61.8506901 C88.5568327,61.5049319 88.9455981,61.2346187 89.4128019,61.0469538 C89.8925712,60.8551187 90.4275519,60.7265967 91.0036558,60.6648 C91.5892788,60.6018659 92.1554827,60.5700198 92.6858942,60.5700198 L94.0193481,60.5700198 L94.0193481,61.3312945 Z M94.839525,63.5245088 L94.839525,59.2233824 C94.839525,57.942333 94.4941673,56.9846736 93.8133519,56.3777011 C93.1378673,55.7756571 92.2076481,55.4704648 91.0485865,55.4704648 C90.4781942,55.4704648 89.889525,55.577756 89.2981904,55.7896846 C88.7060942,56.0019923 88.1684481,56.3178 87.7001019,56.7280088 L87.5813019,56.8318879 L88.0412712,57.4847341 L88.1890096,57.3524209 C88.5697788,57.0119703 89.0076635,56.7359703 89.4904788,56.5316242 C89.9694865,56.3287945 90.493425,56.2264319 91.0485865,56.2264319 C91.9353981,56.2264319 92.6622865,56.4660363 93.2079288,56.9391791 C93.7463365,57.406256 94.0193481,58.1675308 94.0193481,59.2021516 L94.0193481,59.8144319 L92.4943673,59.8144319 C91.9795673,59.8144319 91.404225,59.8504484 90.7835712,59.9221022 C90.1514942,59.9948934 89.5517827,60.1533659 89.0004288,60.3929703 C88.4395558,60.6371242 87.9635942,60.9859154 87.5858712,61.4310033 C87.1986288,61.8874648 87.0021519,62.4914044 87.0021519,63.2265198 C87.0021519,63.7364374 87.1057212,64.186833 87.3101942,64.5659538 C87.513525,64.9428 87.7846327,65.256333 88.1162827,65.4974538 C88.4426019,65.7355418 88.815375,65.9163824 89.2235596,66.0354264 C89.6279365,66.1529538 90.0414519,66.2128549 90.4530635,66.2128549 C91.2762865,66.2128549 92.0591481,65.9853824 92.7791827,65.5365033 C93.3252058,65.1960527 93.7535712,64.7157066 94.0581865,64.1038055 C94.0665635,64.2649319 94.0787481,64.4298495 94.0947404,64.5955253 C94.1156827,64.814278 94.1331981,65.0254484 94.1472865,65.2290363 C94.1617558,65.4424813 94.2485712,66.0615857 94.2782712,66.2094429 L95.077125,66.2094429 C95.0348596,65.9421626 94.9267212,65.1012725 94.8920712,64.6914429 C94.8570404,64.2816132 94.839525,63.8892231 94.839525,63.5245088 L94.839525,63.5245088 Z M40.0399027,31.4139181 C39.0613258,33.9172533 37.6981719,36.1457258 35.9877565,38.0367808 C34.2815296,39.9229071 32.2261373,41.4348412 29.8790758,42.5301214 C27.5381065,43.623506 24.9294565,44.1777808 22.1262335,44.1777808 C19.1984988,44.1777808 16.5266412,43.623506 14.1852912,42.5301214 C11.8405142,41.4359786 9.81901038,39.9263192 8.17675269,38.0428467 C6.52916423,36.1540665 5.24482962,33.9282478 4.35954115,31.4283247 C3.47196808,28.9219566 3.02189885,26.2552203 3.02189885,23.5024236 C3.02189885,20.7496269 3.47196808,18.0828907 4.35954115,15.5769016 C5.24482962,13.0769786 6.52916423,10.8511599 8.17675269,8.96237967 C9.82053346,7.07776978 11.8439412,5.55142912 14.1898604,4.42544011 C16.5296873,3.30248407 19.2000219,2.73380275 22.1262335,2.73380275 C24.9294565,2.73380275 27.5377258,3.28769835 29.8790758,4.38070385 C32.2276604,5.47712143 34.2838142,6.97426978 35.9904219,8.83082473 C37.6993142,10.6896544 39.0620873,12.9006874 40.0399027,15.4028852 C41.0177181,17.9054621 41.5134796,20.5991159 41.5134796,23.4087808 C41.5134796,26.2188247 41.0177181,28.9120995 40.0399027,31.4139181 L40.0399027,31.4139181 Z M41.4194296,12.0044456 C39.5479488,8.26783022 36.991845,5.36186868 33.8177527,3.36352253 C30.2743142,1.13125879 26.3405873,-3.79120884e-05 22.1262335,-3.79120884e-05 C18.9372912,-3.79120884e-05 15.9436835,0.598214835 13.2287988,1.77841813 C10.5131527,2.95900055 8.14743346,4.62561593 6.197895,6.73201154 C4.25064115,8.8357533 2.71423731,11.3542533 1.63094885,14.2181324 C0.548802692,17.0782203 0.00011423077,20.2021764 0.00011423077,23.5024236 C0.00011423077,26.8041874 0.548802692,29.9125995 1.63132962,32.7419786 C2.71537962,35.575528 4.252545,38.062561 6.20017962,40.1344566 C8.14971808,42.209006 10.514295,43.8589401 13.2287988,45.0391434 C15.944445,46.2189676 18.9380527,46.8172203 22.1262335,46.8172203 C24.2318873,46.8172203 26.3188835,46.5264346 28.3289642,45.9528247 C30.3420912,45.3784566 32.2379412,44.520506 33.9639681,43.4039951 C35.6880912,42.2878632 37.2743758,40.8983852 38.6778912,39.2738522 C39.753945,38.0288192 40.674645,36.604083 41.4194296,35.0326269 L41.4194296,42.3955335 C41.4194296,45.4823357 41.1216681,48.5020335 40.5345219,51.3712203 C39.9530873,54.2146269 38.9455719,56.7695225 37.5401527,58.9653907 C36.1472988,61.1434401 34.2095642,62.9237918 31.7813988,64.2571599 C29.3532335,65.590528 26.2636719,66.2665005 22.597245,66.2665005 C19.3485219,66.2665005 16.1934681,65.6610445 13.2200412,64.4679511 C10.2599412,63.2794071 7.58084885,61.3455115 5.25625269,58.7193412 L4.92117577,58.3402203 L2.836845,60.4219731 L3.13003731,60.7548412 C5.42455269,63.3643302 8.23539115,65.4130995 11.4852565,66.8446599 C14.7320758,68.2747038 18.4704681,68.9999621 22.597245,68.9999621 C26.6714758,68.9999621 30.1498027,68.2705335 32.9351296,66.8317698 C35.7215988,65.393006 37.9963142,63.429539 39.6964488,60.9952038 C41.3866835,58.574517 42.6146642,55.736039 43.3465027,52.559006 C44.0730104,49.4062368 44.4412142,46.0498797 44.4412142,42.5835775 L44.4412142,1.31626978 L41.4194296,1.31626978 L41.4194296,12.0044456 Z M194.841938,1.31611813 L183.21515,41.6739148 L169.487277,1.38056868 L169.465192,1.31611813 L165.865019,1.31611813 L152.209492,41.6693654 L140.602884,1.38473901 L140.583084,1.31611813 L137.426888,1.31611813 L150.217688,45.1595522 L150.31745,45.5011401 L153.838423,45.5011401 L167.619603,5.23471154 L181.471607,45.4370687 L181.493692,45.5011401 L185.013142,45.5011401 L197.964246,1.43743681 L198.000038,1.31611813 L194.841938,1.31611813 Z" id="Fill-1"></path>
            </g>
        </g>
    </g>
</svg>