<?xml version="1.0" encoding="UTF-8" standalone="no"?>
<svg width="40px" height="40px" viewBox="0 0 40 40" version="1.1" xmlns="http://www.w3.org/2000/svg" xmlns:xlink="http://www.w3.org/1999/xlink">
    <!-- Generator: Sketch 3.7.2 (28276) - http://www.bohemiancoding.com/sketch -->
    <title>Group 17</title>
    <desc>Created with Sketch.</desc>
    <defs>
        <linearGradient x1="50%" y1="-15.3417969%" x2="50%" y2="97.6299946%" id="linearGradient-1">
            <stop stop-color="#FFAC94" offset="0%"></stop>
            <stop stop-color="#FB7049" offset="100%"></stop>
        </linearGradient>
        <rect id="path-2" x="0" y="0" width="40" height="40"></rect>
    </defs>
    <g id="v1.3" stroke="none" stroke-width="1" fill="none" fill-rule="evenodd">
        <g id="Acorns-Desktop" transform="translate(-764.000000, -4829.000000)">
            <g id="Group" transform="translate(300.000000, 4558.000000)">
                <g id="Group-8" transform="translate(64.000000, 0.000000)">
                    <g id="Group-Copy-7" transform="translate(400.000000, 266.000000)">
                        <g id="Group-17" transform="translate(0.000000, 5.000000)">
                            <mask id="mask-3" fill="white">
                                <use xlink:href="#path-2"></use>
                            </mask>
                            <use id="Mask" fill="url(#linearGradient-1)" xlink:href="#path-2"></use>
                            <g id="Page-1-Copy" mask="url(#mask-3)">
                                <g transform="translate(19.390465, 18.884646) rotate(-20.000000) translate(-19.390465, -18.884646) translate(10.390465, 7.384646)">
                                    <g id="Group-3" stroke-width="1" fill="none" transform="translate(0.000000, -0.000000)">
                                        <path d="M15.2688845,20.4620105 L2.91935596,20.4620105 C2.67081341,20.4620105 2.46950518,20.2607023 2.46950518,20.0121598 L2.46950518,2.60180993 C2.46950518,2.35326738 2.67081341,2.15195915 2.91935596,2.15195915 L9.26225197,2.15195915 C9.88417067,2.15195915 10.3880035,2.65579203 10.3868789,3.27771073 L10.3846297,7.01034758 C10.383505,7.32186925 10.6376707,7.57491031 10.9491924,7.57266106 L14.8156598,7.55691628 C15.3138696,7.55466702 15.7187353,7.95728347 15.7187353,8.45661784 L15.7187353,20.0121598 C15.7187353,20.2607023 15.5174271,20.4620105 15.2688845,20.4620105 M9.80319753,0.279455279 L2.00503425,0.279455279 C1.23016628,0.279455279 0.602624443,0.906997118 0.602624443,1.68186509 L0.602624443,20.9590957 C0.602624443,21.7339636 1.23016628,22.3626301 2.00503425,22.3626301 L16.216945,22.3626301 C16.991813,22.3626301 17.6193548,21.7339636 17.6193548,20.9590957 L17.6193548,8.02138721 C17.6193548,7.71998719 17.5001444,7.42983343 17.2864653,7.21727894 L10.7343886,0.665202323 C10.4869707,0.417784394 10.1529565,0.279455279 9.80319753,0.279455279" id="Fill-1" fill="#FFFFFF"></path>
                                    </g>
                                    <path d="M13.615458,11.437779 C13.615458,11.9213685 13.2229632,12.3307328 12.7393736,12.3307328 L5.74869245,12.3307328 C5.26510286,12.3307328 4.87260805,11.938238 4.87373268,11.4546484 C4.87373268,10.9710588 5.26510286,10.5616946 5.74869245,10.5616946 L12.7393736,10.5616946 C13.2240878,10.5616946 13.615458,10.9541894 13.615458,11.437779" id="Fill-4" fill="#FFFFFF"></path>
                                    <path d="M8.60232087,6.88056563 C8.60232087,7.36415522 8.20982606,7.77351943 7.72623648,7.77351943 L5.7491423,7.77351943 C5.26555271,7.77351943 4.8730579,7.38102462 4.8730579,6.89743503 C4.8730579,6.41384545 5.26555271,6.00448124 5.7491423,6.00448124 L7.72623648,6.00448124 C8.21095069,6.00448124 8.60232087,6.39697604 8.60232087,6.88056563" id="Fill-6" fill="#FFFFFF"></path>
                                    <path d="M11.4558368,15.9583295 C11.4558368,16.441919 11.063342,16.8512833 10.5797524,16.8512833 L5.74835506,16.8512833 C5.26476547,16.8512833 4.87339529,16.4587884 4.87339529,15.9751989 C4.87339529,15.4916093 5.2658901,15.0822451 5.74835506,15.0822451 L10.5797524,15.0822451 C11.0644667,15.0822451 11.4558368,15.4747399 11.4558368,15.9583295" id="Fill-8" fill="#FFFFFF"></path>
                                </g>
                            </g>
                        </g>
                    </g>
                </g>
            </g>
        </g>
    </g>
</svg>