<?xml version="1.0" encoding="UTF-8" standalone="no"?>
<svg width="40px" height="40px" viewBox="0 0 40 40" version="1.1" xmlns="http://www.w3.org/2000/svg" xmlns:xlink="http://www.w3.org/1999/xlink">
    <!-- Generator: Sketch 3.7 (28169) - http://www.bohemiancoding.com/sketch -->
    <title>icon-recurring</title>
    <desc>Created with Sketch.</desc>
    <defs>
        <linearGradient x1="46.3953465%" y1="0%" x2="46.3953468%" y2="100%" id="linearGradient-1">
            <stop stop-color="#F90EBE" offset="0%"></stop>
            <stop stop-color="#FF3730" offset="100%"></stop>
        </linearGradient>
    </defs>
    <g id="v1.3" stroke="none" stroke-width="1" fill="none" fill-rule="evenodd">
        <g id="Acorns-Desktop" transform="translate(-288.000000, -2718.000000)">
            <g id="Group" transform="translate(160.000000, 2569.000000)">
                <g id="icon-recurring" transform="translate(128.000000, 149.000000)">
                    <rect id="Mask" fill="url(#linearGradient-1)" x="0" y="0" width="40" height="40" rx="4"></rect>
                    <g id="Group-7" transform="translate(10.000000, 7.000000)" fill="#FFFFFF">
                        <path d="M10.8601101,2.87401456 C10.4059851,2.83672885 10.0450476,2.48830028 10.0450476,2.04087171 L10.0450476,0.446585992 C10.0450476,0.0788717066 9.61586009,-0.130699722 9.31529759,0.0904431351 L4.33829759,3.77015742 C3.88811009,4.10187171 3.88679759,4.76401456 4.33698509,5.09830028 L9.31529759,8.78958599 C9.61454759,9.01201456 10.0450476,8.80244314 10.0450476,8.43472885 L10.0450476,6.96387171 C10.0450476,6.45087171 10.5149226,6.05230028 11.0333601,6.12815742 C14.6729226,6.66944314 17.3412351,10.1061574 16.5091101,13.9658717 C16.3424226,14.7398717 16.0234851,15.4650146 15.5864226,16.1117288 C15.1086726,16.8201574 15.2989851,17.771586 16.0064226,18.2627288 L16.0339851,18.2807288 C16.7571726,18.7834431 17.7887976,18.6420146 18.2822976,17.9194431 C19.3296726,16.3817288 19.9439226,14.5367288 19.9439226,12.5490146 C19.9439226,7.46015742 15.9473601,3.28672885 10.8601101,2.87401456" id="Fill-1"></path>
                        <path d="M9.0838125,22.7060273 C9.5379375,22.7420273 9.898875,23.0904559 9.898875,23.5378844 L9.898875,25.1321701 C9.898875,25.4998844 10.3280625,25.7094559 10.628625,25.488313 L15.605625,21.8098844 C16.057125,21.4768844 16.057125,20.8147416 15.6069375,20.4804559 L10.628625,16.7891701 C10.329375,16.5667416 9.898875,16.776313 9.898875,17.145313 L9.898875,18.6148844 C9.898875,19.1291701 9.429,19.5277416 8.9105625,19.4505987 C5.271,18.9105987 2.6026875,15.4725987 3.4348125,11.6141701 C3.6015,10.8388844 3.9204375,10.1137416 4.3575,9.46831299 C4.83525,8.75859871 4.6449375,7.80845585 3.9375,7.31731299 L3.9099375,7.29802728 C3.18675,6.79531299 2.155125,6.93674157 1.661625,7.66059871 C0.61425,9.19831299 0,11.0420273 0,13.0297416 C0,18.1185987 3.9965625,22.293313 9.0838125,22.7060273" id="Fill-2"></path>
                    </g>
                </g>
            </g>
        </g>
    </g>
</svg>