<?xml version="1.0" encoding="UTF-8" standalone="no"?>
<svg width="40px" height="40px" viewBox="0 0 40 40" version="1.1" xmlns="http://www.w3.org/2000/svg" xmlns:xlink="http://www.w3.org/1999/xlink">
    <!-- Generator: Sketch 3.7.2 (28276) - http://www.bohemiancoding.com/sketch -->
    <title>Group 11</title>
    <desc>Created with Sketch.</desc>
    <defs>
        <linearGradient x1="50%" y1="0%" x2="50%" y2="100%" id="linearGradient-1">
            <stop stop-color="#32C0FF" offset="0%"></stop>
            <stop stop-color="#0077D7" offset="100%"></stop>
        </linearGradient>
    </defs>
    <g id="v1.3" stroke="none" stroke-width="1" fill="none" fill-rule="evenodd">
        <g id="Acorns-Desktop" transform="translate(-1088.000000, -2718.000000)">
            <g id="Group" transform="translate(160.000000, 2585.000000)">
                <g id="Group-11" transform="translate(928.000000, 133.000000)">
                    <rect id="Mask" fill="url(#linearGradient-1)" x="0" y="0" width="40" height="40"></rect>
                    <path d="M22.810863,16.0291825 C23.0083495,16.6076067 23.5741215,17 24.2135507,17 L29.9886954,17 C30.9932076,17 31.3707637,18.107343 30.5584004,18.6695022 L25.8859774,21.9021721 C25.3693102,22.2600022 25.1526088,22.8933209 25.3500953,23.4727617 L27.1349459,28.7029777 C27.4455868,29.6128014 26.351405,30.3691242 25.5390418,29.8069649 L20.8666188,26.574295 C20.3499515,26.2164649 19.6496752,26.2164649 19.1330079,26.574295 L14.4605849,29.8069649 C13.6482217,30.3691242 12.5551074,29.6128014 12.8646808,28.7029777 L13.7571061,26.0878697 L14.6495314,23.4727617 C14.8470179,22.8933209 14.631384,22.2600022 14.1136492,21.9021721 L9.44229374,18.6695022 C8.628863,18.107343 9.00677436,17 10.0112866,17 L15.7864313,17 C16.4247929,17 16.9916325,16.6076067 17.1880514,16.0291825 L19.0134485,10.6823678 C19.3240894,9.77254406 20.6755373,9.77254406 20.9861782,10.6823678 L22.810863,16.0291825 Z M21.1711929,18.8757957 C21.253479,19.1168058 21.4892173,19.280303 21.7556461,19.280303 L24.1619564,19.280303 C24.5805032,19.280303 24.7378182,19.7416959 24.3993335,19.975929 L22.4524906,21.3228747 C22.2372126,21.4719706 22.1469203,21.7358534 22.2292064,21.9772871 L22.9728941,24.1565437 C23.1023278,24.535637 22.6464187,24.8507714 22.3079341,24.6165384 L20.3610912,23.2695926 C20.1458131,23.1204967 19.8540313,23.1204967 19.6387533,23.2695926 L17.6919104,24.6165384 C17.3534257,24.8507714 16.8979614,24.535637 17.0269503,24.1565437 L17.7706381,21.9772871 C17.8529241,21.7358534 17.7630767,21.4719706 17.5473538,21.3228747 L15.6009557,19.975929 C15.2620263,19.7416959 15.4194893,19.280303 15.8380361,19.280303 L18.2443464,19.280303 C18.5103304,19.280303 18.7465135,19.1168058 18.8283548,18.8757957 L19.5889369,16.6479563 C19.7183706,16.2688631 20.2814739,16.2688631 20.4109076,16.6479563 L21.1711929,18.8757957 Z" id="fm_icon" fill="#FFFFFF"></path>
                </g>
            </g>
        </g>
    </g>
</svg>