<?xml version="1.0" encoding="UTF-8" standalone="no"?>
<svg width="40px" height="40px" viewBox="0 0 40 40" version="1.1" xmlns="http://www.w3.org/2000/svg" xmlns:xlink="http://www.w3.org/1999/xlink">
    <!-- Generator: Sketch 3.7.2 (28276) - http://www.bohemiancoding.com/sketch -->
    <title>Group 11</title>
    <desc>Created with Sketch.</desc>
    <defs>
        <linearGradient x1="50%" y1="0%" x2="50%" y2="100%" id="linearGradient-1">
            <stop stop-color="#39EFF6" offset="0%"></stop>
            <stop stop-color="#0DAFB6" offset="100%"></stop>
        </linearGradient>
        <rect id="path-2" x="0" y="0" width="40" height="40"></rect>
    </defs>
    <g id="v1.3" stroke="none" stroke-width="1" fill="none" fill-rule="evenodd">
        <g id="Acorns-Desktop" transform="translate(-764.000000, -4566.000000)">
            <g id="Group" transform="translate(300.000000, 4558.000000)">
                <g id="Group-8" transform="translate(64.000000, 0.000000)">
                    <g id="HERO-Copy">
                        <g id="HERO">
                            <g id="Group-Copy" transform="translate(400.000000, 0.000000)">
                                <g id="Group-11" transform="translate(0.000000, 8.000000)">
                                    <mask id="mask-3" fill="white">
                                        <use xlink:href="#path-2"></use>
                                    </mask>
                                    <use id="Mask" fill="url(#linearGradient-1)" xlink:href="#path-2"></use>
                                    <path d="M19.7070825,10.0035324 C15.0312967,10.1333473 11.1332959,14.0323322 11.0035138,18.7092986 C10.871009,23.5033707 14.5021851,27.4777028 19.1570968,27.8916578 C19.5854685,27.9297853 19.9612013,27.6093332 19.9612013,27.1790378 L19.9612013,20.3088356 C19.9612013,19.5653505 20.5638258,18.9634816 21.3062157,18.9634816 L28.1774063,18.9634816 C28.5839964,18.9634816 28.9252417,18.6239658 28.8925692,18.2181808 C28.5068532,13.5339521 24.5199109,9.87008636 19.7070825,10.0035324 Z M30.1336985,20.5263158 L22.4892246,20.5263158 C21.9571669,20.5263158 21.5263158,20.9571669 21.5263158,21.4892246 L21.5263158,29.1336985 C21.5263158,29.6512981 21.9793359,30.0474497 22.4950078,29.9954006 C26.9779794,29.5423805 30.5423805,25.9779794 30.9954006,21.4940439 C31.0474497,20.9793359 30.6512981,20.5263158 30.1336985,20.5263158 Z" id="Menu/Portfolio" fill="#FFFFFF" mask="url(#mask-3)"></path>
                                </g>
                            </g>
                        </g>
                    </g>
                </g>
            </g>
        </g>
    </g>
</svg>