<?xml version="1.0" encoding="UTF-8" standalone="no"?>
<svg width="40px" height="40px" viewBox="0 0 40 40" version="1.1" xmlns="http://www.w3.org/2000/svg" xmlns:xlink="http://www.w3.org/1999/xlink">
    <!-- Generator: Sketch Beta 3.7 (28138) - http://www.bohemiancoding.com/sketch -->
    <title>Group 16</title>
    <desc>Created with Sketch Beta.</desc>
    <defs>
        <path d="M2.91422468,8.45238095 C2.90479498,8.31864536 2.9,8.18363542 2.9,8.04750967 L2.9,5.77614855 C2.9,2.63576408 5.45197693,0.082815735 8.6,0.082815735 C11.7416175,0.082815735 14.3,2.63180766 14.3,5.77614855 L14.3,8.04750967 C14.3,8.18362369 14.2952058,8.31863413 14.2857766,8.45238095 L2.91422468,8.45238095 Z" id="path-1"></path>
        <mask id="mask-2" maskContentUnits="userSpaceOnUse" maskUnits="objectBoundingBox" x="0" y="0" width="15.2" height="19.1304348" fill="white">
            <use xlink:href="#path-1"></use>
        </mask>
        <linearGradient x1="50%" y1="0%" x2="50%" y2="100%" id="linearGradient-3">
            <stop stop-color="#24E299" offset="0%"></stop>
            <stop stop-color="#2D9E88" offset="100%"></stop>
        </linearGradient>
    </defs>
    <g id="v1.2" stroke="none" stroke-width="1" fill="none" fill-rule="evenodd">
        <g id="Acorns-Desktop" transform="translate(-680.000000, -2718.000000)">
            <g id="Icon-/-LockedTransaction" transform="translate(786.000000, 5592.000000)">
                <use id="Rectangle-95" stroke="#FFFFFF" mask="url(#mask-2)" stroke-width="3.33333333" xlink:href="#path-1"></use>
                <path d="M10.31,14.0246398 C10.8347557,13.5867756 11.165,12.9504605 11.165,12.242236 C11.165,10.9215551 10.0166104,9.85093168 8.6,9.85093168 C7.18338962,9.85093168 6.035,10.9215551 6.035,12.242236 C6.035,12.9504605 6.3652443,13.5867756 6.89,14.0246398 L6.89,16.1130777 C6.89,17.0568597 7.64900885,17.8219462 8.6,17.8219462 C9.54440692,17.8219462 10.31,17.0654008 10.31,16.1130777 L10.31,14.0246398 Z M1.66098435,7 C0.743648025,7 0,7.75512566 0,8.67290904 L0,18.327091 C0,19.2510131 0.75240396,20 1.66098435,20 L15.3390156,20 C16.256352,20 17,19.2448743 17,18.327091 L17,8.67290904 C17,7.74898689 16.247596,7 15.3390156,7 L1.66098435,7 Z" id="Rectangle-9" fill="#FFFFFF" fill-rule="evenodd"></path>
            </g>
            <g id="Group" transform="translate(160.000000, 2569.000000)">
                <g id="Group-16" transform="translate(520.000000, 149.000000)">
                    <rect id="Mask" fill="url(#linearGradient-3)" x="0" y="0" width="40" height="40"></rect>
                    <g id="Page-1" transform="translate(20.000000, 20.000000) rotate(-90.000000) translate(-20.000000, -20.000000) translate(8.000000, 8.000000)" fill="#FFFFFF">
                        <path d="M16.86756,11.60616 L12.98676,7.72536 C12.49356,7.23216 11.65236,7.58136 11.65236,8.27736 L11.65236,10.29936 C11.65236,10.73136 11.30196,11.08176 10.86996,11.08176 L7.28676,11.08176 C6.53316,11.08176 5.92116,11.69256 5.92116,12.44736 L5.92116,12.47496 C5.92116,13.22976 6.53316,13.84056 7.28676,13.84056 L10.86996,13.84056 C11.30196,13.84056 11.65236,14.19096 11.65236,14.62296 L11.65236,16.63296 C11.65236,17.32896 12.49356,17.67816 12.98676,17.18616 L16.86756,13.30416 C17.33676,12.83496 17.33676,12.07536 16.86756,11.60616" id="Fill-1"></path>
                        <g id="Group-5">
                            <path d="M11.652,21.54144 C6.576,21.54144 2.4588,17.42544 2.4588,12.34704 C2.4588,7.26984 6.576,3.15384 11.652,3.15384 C16.7304,3.15384 20.8464,7.26984 20.8464,12.34704 C20.8464,17.42544 16.7304,21.54144 11.652,21.54144 M11.652,0.69504 C5.2176,0.69504 0,5.91264 0,12.34704 C0,18.78264 5.2176,24.00024 11.652,24.00024 C18.0876,24.00024 23.304,18.78264 23.304,12.34704 C23.304,5.91264 18.0876,0.69504 11.652,0.69504" id="Fill-3"></path>
                        </g>
                    </g>
                </g>
            </g>
        </g>
    </g>
</svg>