<?xml version="1.0" encoding="UTF-8" standalone="no"?>
<svg width="40px" height="41px" viewBox="0 0 40 41" version="1.1" xmlns="http://www.w3.org/2000/svg" xmlns:xlink="http://www.w3.org/1999/xlink">
    <!-- Generator: Sketch 3.7.2 (28276) - http://www.bohemiancoding.com/sketch -->
    <title>icon-3</title>
    <desc>Created with Sketch.</desc>
    <defs>
        <linearGradient x1="50%" y1="0%" x2="50%" y2="100%" id="linearGradient-1">
            <stop stop-color="#9A71F6" offset="0%"></stop>
            <stop stop-color="#C271F6" offset="100%"></stop>
        </linearGradient>
        <rect id="path-2" x="0" y="0" width="40" height="40" rx="4"></rect>
    </defs>
    <g id="v1.3" stroke="none" stroke-width="1" fill="none" fill-rule="evenodd">
        <g id="Acorns-Desktop" transform="translate(-801.000000, -2279.000000)">
            <g id="Group" transform="translate(-83.500000, 1614.000000)">
                <g id="Buckets" transform="translate(884.000000, 343.000000)">
                    <g id="3" transform="translate(0.500000, 318.828358)">
                        <g id="icon-3" transform="translate(0.000000, 4.000000)">
                            <mask id="mask-3" fill="white">
                                <use xlink:href="#path-2"></use>
                            </mask>
                            <use id="Mask" fill="url(#linearGradient-1)" xlink:href="#path-2"></use>
                            <path d="M17.472,19.16 L18.216,19.16 C18.6960024,19.16 19.1639977,19.1160004 19.62,19.028 C20.0760023,18.9399996 20.4799982,18.7880011 20.832,18.572 C21.1840018,18.3559989 21.4679989,18.0640018 21.684,17.696 C21.9000011,17.3279982 22.008,16.8720027 22.008,16.328 C22.008,15.8959978 21.9280008,15.5080017 21.768,15.164 C21.6079992,14.8199983 21.3880014,14.5280012 21.108,14.288 C20.8279986,14.0479988 20.5080018,13.8600007 20.148,13.724 C19.7879982,13.5879993 19.408002,13.52 19.008,13.52 C18.2879964,13.52 17.6760025,13.7039982 17.172,14.072 C16.6679975,14.4400018 16.2880013,14.9519967 16.032,15.608 L13.92,14.864 C14.3360021,13.8399949 15.0039954,13.0360029 15.924,12.452 C16.8440046,11.8679971 17.903994,11.576 19.104,11.576 C19.8080035,11.576 20.4759968,11.675999 21.108,11.876 C21.7400032,12.076001 22.2959976,12.3679981 22.776,12.752 C23.2560024,13.1360019 23.6359986,13.6159971 23.916,14.192 C24.1960014,14.7680029 24.336,15.4319962 24.336,16.184 C24.336,16.6640024 24.2600008,17.1119979 24.108,17.528 C23.9559992,17.9440021 23.7480013,18.3199983 23.484,18.656 C23.2199987,18.9920017 22.9040018,19.2799988 22.536,19.52 C22.1679982,19.7600012 21.7680022,19.9359994 21.336,20.048 L21.336,20.096 C21.8320025,20.1920005 22.2919979,20.3599988 22.716,20.6 C23.1400021,20.8400012 23.5039985,21.1399982 23.808,21.5 C24.1120015,21.8600018 24.3519991,22.2719977 24.528,22.736 C24.7040009,23.2000023 24.792,23.7039973 24.792,24.248 C24.792,25.0960042 24.6320016,25.8439968 24.312,26.492 C23.9919984,27.1400032 23.5680026,27.6799978 23.04,28.112 C22.5119974,28.5440022 21.9040034,28.8719989 21.216,29.096 C20.5279966,29.3200011 19.8240036,29.432 19.104,29.432 C17.7599933,29.432 16.5760051,29.128003 15.552,28.52 C14.5279949,27.911997 13.7840023,26.9680064 13.32,25.688 L15.48,24.968 C15.7360013,25.7040037 16.1719969,26.3039977 16.788,26.768 C17.4040031,27.2320023 18.1599955,27.464 19.056,27.464 C19.4880022,27.464 19.907998,27.3960007 20.316,27.26 C20.724002,27.1239993 21.0879984,26.9200014 21.408,26.648 C21.7280016,26.3759986 21.983999,26.040002 22.176,25.64 C22.368001,25.239998 22.464,24.7680027 22.464,24.224 C22.464,23.631997 22.3360013,23.136002 22.08,22.736 C21.8239987,22.335998 21.492002,22.0120012 21.084,21.764 C20.675998,21.5159988 20.2160026,21.3400005 19.704,21.236 C19.1919974,21.1319995 18.6880025,21.08 18.192,21.08 L17.472,21.08 L17.472,19.16 Z" id="2-copy" fill="#FFFFFF" mask="url(#mask-3)"></path>
                        </g>
                    </g>
                </g>
            </g>
        </g>
    </g>
</svg>