<?xml version="1.0" encoding="UTF-8" standalone="no"?>
<svg width="40px" height="40px" viewBox="0 0 40 40" version="1.1" xmlns="http://www.w3.org/2000/svg" xmlns:xlink="http://www.w3.org/1999/xlink">
    <!-- Generator: Sketch 3.8.2 (29753) - http://www.bohemiancoding.com/sketch -->
    <title>Group 3</title>
    <desc>Created with Sketch.</desc>
    <defs>
        <linearGradient x1="77.6757812%" y1="100%" x2="77.6757836%" y2="0%" id="linearGradient-1">
            <stop stop-color="#665ED9" offset="0%"></stop>
            <stop stop-color="#A382FF" offset="100%"></stop>
        </linearGradient>
    </defs>
    <g id="v1.3" stroke="none" stroke-width="1" fill="none" fill-rule="evenodd">
        <g id="Artboard-12" transform="translate(-1092.000000, -523.000000)">
            <g id="Group-2" transform="translate(615.000000, 231.000000)">
                <g id="Group">
                    <g id="Group-11-Copy" transform="translate(359.000000, 292.000000)">
                        <g id="Group-3" transform="translate(118.000000, 0.000000)">
                            <rect id="Mask" fill="url(#linearGradient-1)" x="0" y="0" width="40" height="40" rx="4"></rect>
                            <path d="M21.3569,17 C20.0556,17 19,18.0342604 19,19.3100999 L19,25.7977332 C19,27.0735727 20.0556001,27.9917579 21.3569001,27.9917579 C22.8149999,27.9917579 22.8465,28.4022574 22.8395,28.7611945 L22.815,29.9663446 C22.8094,30.2566513 23.165,30.4096971 23.3792,30.20861 L25.3917,28.3185283 C25.5359,28.1833264 25.8196239,27.9917577 26.0191239,27.9917577 L30.7357239,27.9917579 C32.0370239,27.9917579 33,27.0735727 33,25.7977332 L33,19.3100999 C33,18.0342604 31.9444,17 30.6431,17 L21.3569,17 Z" id="Menu/Referrals" fill="#FFFFFF" transform="translate(26.000000, 23.650000) scale(-1, 1) translate(-26.000000, -23.650000) "></path>
                            <path d="M17,20.9917578 L15.0191239,20.9917577 C14.8196239,20.9917577 14.5359,21.1833264 14.3917,21.3185283 L12.3792,23.20861 C12.165,23.4096971 11.8094,23.2566513 11.815,22.9663446 L11.8395,21.7611945 C11.8465,21.4022574 11.8149999,20.9917579 10.3569001,20.9917579 C9.05560007,20.9917579 8,20.0735727 8,18.7977332 L8,12.3100999 C8,11.0342604 9.0556,10 10.3569,10 L19.6431,10 C20.9444,10 22,11.0342604 22,12.3100999 L22,15 L21,15 C17.5,15 17,17 17,19 L17,20.9917578 Z" id="Combined-Shape" fill="#FFFFFF"></path>
                        </g>
                    </g>
                </g>
            </g>
        </g>
    </g>
</svg>