<?xml version="1.0" encoding="UTF-8" standalone="no"?>
<svg width="41px" height="40px" viewBox="0 0 41 40" version="1.1" xmlns="http://www.w3.org/2000/svg" xmlns:xlink="http://www.w3.org/1999/xlink">
    <!-- Generator: Sketch 3.7.2 (28276) - http://www.bohemiancoding.com/sketch -->
    <title>icon-2</title>
    <desc>Created with Sketch.</desc>
    <defs>
        <linearGradient x1="50%" y1="0%" x2="50%" y2="100%" id="linearGradient-1">
            <stop stop-color="#2FAE8F" offset="0%"></stop>
            <stop stop-color="#2F92AE" offset="100%"></stop>
        </linearGradient>
        <rect id="path-2" x="0" y="0" width="40" height="40" rx="4"></rect>
    </defs>
    <g id="v1.3" stroke="none" stroke-width="1" fill="none" fill-rule="evenodd">
        <g id="Acorns-Desktop" transform="translate(-801.000000, -2121.000000)">
            <g id="Group" transform="translate(-83.500000, 1614.000000)">
                <g id="Buckets" transform="translate(884.000000, 343.000000)">
                    <g id="2" transform="translate(1.000000, 160.000000)">
                        <g id="icon-2" transform="translate(0.000000, 4.000000)">
                            <mask id="mask-3" fill="white">
                                <use xlink:href="#path-2"></use>
                            </mask>
                            <use id="Mask" fill="url(#linearGradient-1)" xlink:href="#path-2"></use>
                            <path d="M25.888,29 L14.8,29 L14.8,26.768 L21.568,20.048 C22.0800026,19.5199974 22.5199982,18.9680029 22.888,18.392 C23.2560018,17.8159971 23.44,17.1680036 23.44,16.448 C23.44,15.9999978 23.3600008,15.5960018 23.2,15.236 C23.0399992,14.8759982 22.8240014,14.5680013 22.552,14.312 C22.2799986,14.0559987 21.9600018,13.8600007 21.592,13.724 C21.2239982,13.5879993 20.8320021,13.52 20.416,13.52 C19.5519957,13.52 18.8400028,13.7959972 18.28,14.348 C17.7199972,14.9000028 17.3680007,15.6079957 17.224,16.472 L14.944,16.088 C15.0400005,15.4479968 15.2439984,14.8520028 15.556,14.3 C15.8680016,13.7479972 16.2639976,13.268002 16.744,12.86 C17.2240024,12.451998 17.7799968,12.1360011 18.412,11.912 C19.0440032,11.6879989 19.7199964,11.576 20.44,11.576 C21.1440035,11.576 21.8199968,11.679999 22.468,11.888 C23.1160032,12.096001 23.6879975,12.399998 24.184,12.8 C24.6800025,13.200002 25.0759985,13.703997 25.372,14.312 C25.6680015,14.920003 25.816,15.6159961 25.816,16.4 C25.816,16.9440027 25.7440007,17.4479977 25.6,17.912 C25.4559993,18.3760023 25.2600012,18.8159979 25.012,19.232 C24.7639988,19.6480021 24.4720017,20.0439981 24.136,20.42 C23.7999983,20.7960019 23.4480018,21.1679982 23.08,21.536 L17.56,26.912 L25.888,26.912 L25.888,29 Z" id="2" fill="#FFFFFF" mask="url(#mask-3)"></path>
                        </g>
                    </g>
                </g>
            </g>
        </g>
    </g>
</svg>