<?xml version="1.0" encoding="UTF-8" standalone="no"?>
<svg width="40px" height="40px" viewBox="0 0 40 40" version="1.1" xmlns="http://www.w3.org/2000/svg" xmlns:xlink="http://www.w3.org/1999/xlink">
    <!-- Generator: Sketch 3.7.2 (28276) - http://www.bohemiancoding.com/sketch -->
    <title>Group 15</title>
    <desc>Created with Sketch.</desc>
    <defs>
        <linearGradient x1="89.0625%" y1="97.3692602%" x2="89.0625%" y2="0%" id="linearGradient-1">
            <stop stop-color="#FA4C71" offset="0%"></stop>
            <stop stop-color="#F8889E" offset="100%"></stop>
        </linearGradient>
        <rect id="path-2" x="0" y="0" width="40" height="40"></rect>
    </defs>
    <g id="v1.3" stroke="none" stroke-width="1" fill="none" fill-rule="evenodd">
        <g id="Acorns-Desktop" transform="translate(-764.000000, -4696.000000)">
            <g id="Group" transform="translate(300.000000, 4558.000000)">
                <g id="Group-8" transform="translate(64.000000, 0.000000)">
                    <g id="Group-14" transform="translate(400.000000, 133.000000)">
                        <g id="Group-Copy-5">
                            <g id="Group-15" transform="translate(0.000000, 5.000000)">
                                <mask id="mask-3" fill="white">
                                    <use xlink:href="#path-2"></use>
                                </mask>
                                <use id="Mask" fill="url(#linearGradient-1)" xlink:href="#path-2"></use>
                                <path d="M22.9247786,8.6342074 L22.9247786,10.5608756 C22.9247786,11.0352046 22.5583084,11.4203035 22.1069244,11.4203035 L10.8748359,11.4203035 C10.3921678,11.4203035 10,11.8312321 10,12.3396095 L10,15.3980925 C10,15.9064699 10.3921678,16.3185726 10.8748359,16.3185726 L22.1069244,16.3185726 C22.5583084,16.3185726 22.9247786,16.7024974 22.9247786,17.1768264 L22.9247786,19.1304985 C22.9247786,19.6670539 23.5202927,19.9605743 23.9113433,19.6165683 L29.7067121,14.5398387 C30.0977626,14.1981809 30.0977626,13.5665249 29.7067121,13.2248671 L23.9113433,8.14813755 C23.5202927,7.80413159 22.9247786,8.09765203 22.9247786,8.6342074 L22.9247786,8.6342074 L22.9247786,8.6342074 Z M17.07578,20.3988779 L17.07578,22.3266125 C17.07578,22.800915 17.4422502,23.1848183 17.8936343,23.1848183 L29.1246055,23.1848183 C29.6083908,23.1848183 29.9994414,23.596898 29.9994414,24.105247 L29.9994414,27.1623852 C29.9994414,27.6707342 29.6083908,28.0828139 29.1246055,28.0828139 L17.8936343,28.0828139 C17.4422502,28.0828139 17.07578,28.4667172 17.07578,28.9410198 L17.07578,30.8957568 C17.07578,31.4322822 16.4802659,31.7246122 16.0880981,31.3817995 L10.2927293,26.3041794 C9.90279601,25.9625407 9.90279601,25.332094 10.2927293,24.9892812 L16.0880981,19.9128352 C16.4802659,19.5688484 17.07578,19.8623525 17.07578,20.3988779 L17.07578,20.3988779 L17.07578,20.3988779 Z" id="traffic" fill="#FFFFFF" mask="url(#mask-3)" transform="translate(20.000000, 19.764706) rotate(-90.000000) translate(-20.000000, -19.764706) "></path>
                            </g>
                        </g>
                    </g>
                </g>
            </g>
        </g>
    </g>
</svg>