<?xml version="1.0" encoding="UTF-8" standalone="no"?>
<svg width="40px" height="40px" viewBox="0 0 40 40" version="1.1" xmlns="http://www.w3.org/2000/svg" xmlns:xlink="http://www.w3.org/1999/xlink">
    <!-- Generator: Sketch 3.7.2 (28276) - http://www.bohemiancoding.com/sketch -->
    <title>Rectangle 10 + Unknown Copy 2</title>
    <desc>Created with Sketch.</desc>
    <defs>
        <linearGradient x1="100%" y1="100%" x2="100%" y2="0%" id="linearGradient-1">
            <stop stop-color="#9A71F6" offset="0%"></stop>
            <stop stop-color="#D490FF" offset="100%"></stop>
        </linearGradient>
        <rect id="path-2" x="0" y="0" width="40" height="40"></rect>
    </defs>
    <g id="v1.3" stroke="none" stroke-width="1" fill="none" fill-rule="evenodd">
        <g id="Acorns-Desktop" transform="translate(-364.000000, -4567.000000)">
            <g id="Group" transform="translate(300.000000, 4561.000000)">
                <g id="Group-8" transform="translate(64.000000, 0.000000)">
                    <g id="Rectangle-10-+-Unknown-Copy-2" transform="translate(0.000000, 6.000000)">
                        <mask id="mask-3" fill="white">
                            <use xlink:href="#path-2"></use>
                        </mask>
                        <use id="Mask" fill="url(#linearGradient-1)" xlink:href="#path-2"></use>
                        <g id="Imported-Layers" mask="url(#mask-3)" fill="#FFFFFF">
                            <g transform="translate(7.000000, 4.000000)">
                                <path d="M24.5747273,21.57125 L24.5239091,21.2708125 L25.0604545,16.757125 C25.1573636,15.944875 24.5794545,15.208625 23.7710909,15.11125 L23.4697273,15.075625 L23.1943636,13.4546875 C23.0572727,12.648375 22.2961818,12.1056875 21.4937273,12.244625 L12.6017273,13.77175 L9.78663636,13.4333125 L6.773,13.0723125 L3.65654545,12.69825 C2.84818182,12.600875 2.11427273,13.1815625 2.01854545,13.9938125 L1.82472727,15.621875 L1.52454545,15.674125 C0.722090909,15.811875 0.183181818,16.576625 0.320272727,17.3829375 L1.08254545,21.86575 L0.607454545,25.872375 C0.510545455,26.684625 1.08727273,27.4220625 1.89563636,27.51825 L2.04809091,27.53725 L2.327,29.176 C2.46409091,29.9823125 3.22518182,30.5238125 4.02763636,30.3860625 L12.9799091,28.84825 L15.8800909,29.1961875 L18.8949091,29.5571875 L22.0113636,29.93125 C22.8185455,30.028625 23.5524545,29.449125 23.6493636,28.636875 L23.8455455,26.9815 L23.9956364,26.9565625 C24.7980909,26.8188125 25.3381818,26.052875 25.2010909,25.2465625 L24.5747273,21.57125 L24.5747273,21.57125 Z M3.887,15.189625 C3.91772727,14.928375 4.15290909,14.743125 4.41290909,14.774 L4.59254545,14.795375 L5.79681818,14.94025 L4.61854545,15.142125 L3.87754545,15.2691875 L3.887,15.189625 L3.887,15.189625 Z M21.7809091,27.4410625 C21.749,27.701125 21.5138182,27.8875625 21.255,27.8555 L21.0753636,27.834125 L19.7848182,27.67975 L20.9028182,27.487375 L21.7927273,27.3341875 L21.7809091,27.4410625 L21.7809091,27.4410625 Z M22.6838182,25.1824375 L22.5053636,25.2133125 L22.035,25.2940625 L14.4193636,26.6015 L12.9302727,26.858 L12.6442727,26.9066875 L6.12536364,28.0265 L4.65045455,28.2794375 C4.44245455,28.3150625 4.24981818,28.2058125 4.15645455,28.028875 L2.48063636,18.1761875 L2.44990909,17.996875 C2.40618182,17.738 2.57872727,17.4921875 2.83636364,17.44825 L3.016,17.417375 L3.63527273,17.3105 L7.94890909,16.5695 L11.1008182,16.028 L12.6513636,15.762 L12.8770909,15.724 L20.8709091,14.3500625 C21.0789091,14.3144375 21.2715455,14.4236875 21.3637273,14.6018125 L23.0702727,24.6338125 C23.114,24.8926875 22.9414545,25.1385 22.6838182,25.1824375 L22.6838182,25.1824375 Z" id="Fill-4"></path>
                                <path d="M12.3876457,10.71525 C13.0166457,10.71525 13.5496457,10.20525 13.5496457,9.57725 L13.5496457,5.29125 C13.5496457,4.93125 13.8416457,4.64025 14.2006457,4.64025 L15.8756457,4.64025 C16.4566457,4.64025 16.7466457,3.93825 16.3366457,3.52825 L13.1026457,0.29325 C12.7116457,-0.09775 12.0776457,-0.09775 11.6866457,0.29325 L8.45264574,3.52825 C8.04264574,3.93825 8.33264574,4.64025 8.91364574,4.64025 L10.5976457,4.64025 C10.9576457,4.64025 11.2496457,4.93125 11.2496457,5.29125 L11.2496457,9.57725 C11.2496457,10.20525 11.7596457,10.71525 12.3876457,10.71525" id="Imported-Layers"></path>
                            </g>
                        </g>
                        <circle id="Oval-46" fill="#FFFFFF" mask="url(#mask-3)" cx="19.7606638" cy="25.5" r="3.5"></circle>
                    </g>
                </g>
            </g>
        </g>
    </g>
</svg>