<?xml version="1.0" encoding="UTF-8" standalone="no"?>
<svg width="47px" height="110px" viewBox="0 0 47 110" version="1.1" xmlns="http://www.w3.org/2000/svg" xmlns:xlink="http://www.w3.org/1999/xlink">
    <!-- Generator: Sketch 3.7 (28169) - http://www.bohemiancoding.com/sketch -->
    <title>laurel-left</title>
    <desc>Created with Sketch.</desc>
    <defs></defs>
    <g id="Page-1" stroke="none" stroke-width="1" fill="none" fill-rule="evenodd">
        <g id="Artboard-1" transform="translate(-302.000000, -241.000000)" fill="#FFFFFF">
            <path d="M340.383436,346.675789 C343.101026,347.760564 345.977307,348.529596 349.000195,348.948093 C348.995159,348.517521 348.863151,348.130187 348.648414,347.849865 C345.54533,347.38074 342.576771,346.460866 339.734826,345.261391 C339.684002,345.240083 339.633229,345.218653 339.582507,345.197101 C339.573846,345.169708 339.564646,345.143771 339.556777,345.120509 C339.405345,344.533563 339.266144,343.778351 339.166149,343.609365 C339.397792,341.828708 339.37621,340.136688 338.907169,338.366119 C338.453234,336.668694 337.645001,334.987483 336.785691,333.765669 C335.528199,331.885566 333.575418,330.354605 331.85392,329.481211 C331.758961,329.452025 331.663642,329.401942 331.575876,329.381044 C331.612565,329.559758 331.663642,329.722259 331.685583,329.906738 C332.381232,333.77828 332.574388,337.604422 334.366386,340.85803 C335.662725,342.748582 337.637807,344.191267 338.773003,343.922475 C338.938148,344.270867 338.986822,344.624097 339.072334,344.975467 C335.082043,343.20375 331.415348,340.674332 328.164504,337.533706 C328.167897,337.475965 328.165966,337.415695 328.16993,337.363374 C328.16993,336.752287 328.135759,335.844663 328.101588,335.610101 C328.812344,333.951949 329.192901,332.332712 329.214842,330.393518 C329.227072,328.551969 328.975645,326.629709 328.506963,325.07785 C327.82822,322.701959 326.397715,320.282471 324.966851,318.719802 C324.895991,318.646299 324.803549,318.573876 324.730172,318.496049 C324.717942,318.696382 324.725136,318.887347 324.696001,319.065701 C324.268684,323.206034 323.372685,327.251967 324.193148,331.18332 C324.910738,333.631273 326.456345,335.406885 327.625712,335.777285 C327.698934,336.215745 327.703353,336.6601 327.717636,337.095538 C324.692528,334.085171 322.039984,330.538748 319.837048,326.578615 C319.861967,326.512074 319.876496,326.431619 319.896238,326.365601 C320.04767,325.794509 320.154858,324.842207 320.172124,324.635388 C321.263437,323.268368 322.022752,321.816675 322.53064,319.989898 C323.018746,318.198432 323.252907,316.270408 323.196794,314.607573 C323.136006,312.070263 322.393597,309.256594 321.419544,307.246419 C321.360914,307.162106 321.319549,307.060138 321.263437,306.972223 C321.195095,307.150576 321.138982,307.329291 321.09474,307.497916 C319.6351,311.324059 317.816125,315.006077 317.633041,319.072907 C317.796702,321.755783 318.616805,323.950437 319.671429,324.618453 C319.639812,325.051112 319.582347,325.526083 319.506905,325.975787 C317.222865,321.739208 315.44715,317.045824 314.27119,312.040825 C314.5591,311.814914 315.044229,310.437483 315.13784,310.164938 C316.548922,309.261278 317.684477,308.159447 318.641264,306.55174 C319.566398,305.026903 320.284348,303.252732 320.691882,301.638179 C321.300126,299.21869 321.319549,296.248286 320.931439,294.013277 C320.90698,293.901941 320.892232,293.783399 320.858061,293.670982 C320.748354,293.817628 320.648,293.969319 320.540451,294.12065 C318.280131,297.297872 315.46732,300.181081 314.205512,304.012988 C313.44368,306.622361 313.768124,309.128324 314.708365,310.019373 C314.530116,310.470443 314.322783,310.960526 314.126658,311.410602 C313.105248,306.84537 312.580869,302.028538 312.621842,297.068603 C312.933484,296.943517 313.618354,295.814808 313.746183,295.592881 C315.274524,295.145374 316.575899,294.438805 317.816125,293.184202 C319.002757,291.963828 320.037598,290.484031 320.738283,289.006035 C321.822402,286.826154 322.420574,283.923488 322.486398,281.604527 C322.498627,281.469771 322.486398,281.35303 322.474168,281.239532 C322.347196,281.364199 322.22526,281.475896 322.100805,281.598762 C319.300584,283.957718 316.419432,285.603979 314.439673,288.977931 C313.199447,291.291488 312.953056,293.709895 313.472815,295.386422 C313.234301,295.753463 312.920813,296.057185 312.631005,296.387902 C312.644323,295.674045 312.669356,294.957341 312.706306,294.238111 C312.905531,290.02554 313.527643,285.825006 314.531585,281.73638 C314.87255,281.676919 315.707288,280.882994 315.870538,280.731493 C317.349601,280.80896 318.695218,280.563949 320.098746,279.795766 C321.446521,279.072622 322.740342,277.997093 323.700007,276.871121 C325.181948,275.195315 326.397715,272.708448 326.998045,270.585136 C327.032216,270.473439 327.056675,270.361022 327.083653,270.248966 C326.929703,270.305174 326.788343,270.383362 326.649142,270.445335 C323.573035,271.734168 320.189029,272.567207 317.633041,275.043984 C315.973051,276.791493 315.557963,278.635564 315.682418,280.467385 C315.37986,280.70109 315.018176,280.887234 314.689439,281.106716 C315.831301,276.643827 317.428197,272.321196 319.426267,268.269839 C319.428167,268.272247 319.430156,268.274511 319.432232,268.276623 C319.595893,268.467228 320.714183,267.89073 320.909497,267.783718 C322.22526,268.288874 323.462968,268.444528 324.884121,268.176817 C326.246284,267.908025 327.615641,267.341616 328.724219,266.596493 C330.389245,265.52673 332.005352,263.655635 333.013935,261.92362 C333.050264,261.833902 333.096665,261.749229 333.140547,261.665637 C333.006381,261.678608 332.872215,261.688697 332.720784,261.699867 C329.718055,261.969019 326.519652,261.721846 323.711877,263.212452 C321.866285,264.278252 320.948344,265.829391 320.794755,267.481777 C320.439339,267.642636 320.007301,267.739823 319.624043,267.87232 C321.370027,264.393456 323.413138,261.119594 325.718819,258.134797 C325.930457,258.320427 326.998685,258.038813 327.183648,257.963802 C328.419198,258.781708 329.62993,259.111392 331.050723,259.145622 C332.408209,259.190661 333.795191,258.921869 334.942616,258.433647 C336.663754,257.734284 338.414028,256.326909 339.544547,254.786219 C339.607853,254.701907 339.673678,254.635249 339.712884,254.546612 C339.578718,254.540487 339.427287,254.529318 339.295639,254.501213 C336.607282,254.12613 334.097694,253.426045 331.819749,253.884361 C329.925239,254.27746 327.850161,255.296059 327.112788,257.639162 C326.762371,257.711658 326.364883,257.745527 325.993268,257.782458 C327.740872,255.557487 329.63588,253.497515 331.663642,251.638182 C331.705366,251.571525 331.685583,251.599269 331.629471,251.56612 C331.719754,251.599269 331.72479,251.571525 331.888091,251.469917 C332.212895,251.173021 332.481587,250.988181 332.806391,250.690925 C334.634718,250.703896 336.36341,250.165591 338.001458,249.068084 C338.72912,248.573737 339.453904,247.98571 340.064306,247.2795 C341.519629,245.711427 342.693672,243.419849 343.230696,241.319236 C343.257673,241.201054 343.279614,241.117461 343.287168,241 C343.153002,241.056209 343.028188,241.117461 342.894022,241.179795 C339.942369,242.361615 337.095747,242.916134 334.725361,245.211675 C333.121124,246.742276 332.278719,248.601481 332.615753,250.406279 C332.252102,250.69741 331.86615,250.966202 331.519404,251.308137 C331.468201,251.345729 331.449744,251.383754 331.451462,251.418643 C331.438394,251.410076 331.417998,251.427428 331.390274,251.459828 C328.741541,253.966246 326.304461,256.709045 324.117855,259.66166 C324.177704,259.229428 324.215665,258.823917 324.293143,258.35546 C326.544111,255.958311 327.81599,253.58242 328.523869,250.344666 C329.236784,246.95486 329.136788,244.25505 328.824214,242.361615 C328.790043,242.132457 328.729255,241.901858 328.665589,241.665855 C326.687989,243.246899 325.294173,245.330578 324.107541,247.710432 C323.487428,248.99458 322.984575,250.321966 322.750414,251.767173 C322.259431,253.879677 322.40115,256.989161 323.973375,258.260698 C323.917262,258.534895 323.780578,259.481432 323.763313,259.683566 C323.717855,259.864836 323.675701,260.046579 323.757341,260.153504 C321.19668,263.683215 318.991452,267.506062 317.206447,271.577709 C317.223497,271.15268 317.237439,270.702541 317.254642,270.338323 C318.866073,267.598518 319.725383,264.624871 319.766748,261.206961 C319.830414,257.262997 318.851326,254.758115 318.074745,253.174188 C317.972233,252.961244 317.867561,252.74794 317.762531,252.540761 C316.910415,253.577016 316.107217,255.549358 315.743566,256.776577 C314.998639,259.23606 314.461615,261.795349 314.395791,264.389949 C314.339678,266.647297 314.874184,269.167312 316.771213,270.623689 C316.756465,270.847442 316.7151,271.946751 316.702871,272.098442 C316.678244,272.259069 316.683011,272.457645 316.786451,272.558933 C315.196577,276.36479 313.971272,280.380831 313.161938,284.571877 C313.078266,284.165007 312.980773,283.738229 312.906656,283.324652 C313.633958,280.663395 314.03214,278.233097 313.90265,275.621203 C313.7023,271.958281 312.335101,268.781779 310.189164,266.214563 C310.028021,266.02504 309.893855,265.834075 309.747459,265.661126 C309.142094,266.920413 308.74643,269.082999 308.634205,270.371832 C308.411914,273.005705 308.421626,275.649307 308.880596,278.216162 C309.278418,280.406133 310.260024,282.618802 312.447326,283.570023 C312.471785,283.800622 312.721053,284.864981 312.752706,285.027481 C312.752706,285.232817 312.815806,285.463914 312.993269,285.481772 C312.702179,287.12023 312.47447,288.784735 312.31316,290.473222 C312.061777,293.169303 311.920402,295.827615 311.912618,298.435751 C311.772623,298.176033 311.627407,297.917505 311.485503,297.621792 C311.705276,293.851858 311.485503,291.094398 310.045286,287.985635 C308.411914,284.405224 306.151234,282.355775 304.769288,281.346905 C304.595916,281.196655 304.405637,281.071627 304.205287,280.944797 C303.893073,282.399733 303.985874,284.669332 304.183346,285.980144 C304.544839,288.657615 305.121069,290.973333 306.185405,293.370122 C307.100828,295.419571 308.7342,297.67764 311.129046,297.82825 C311.204941,298.03615 311.64197,299.027725 311.705276,299.184461 C311.737227,299.323308 311.812909,299.471685 311.91729,299.530003 C311.971527,304.196216 312.468812,308.69442 313.546463,312.952397 C313.391593,312.762308 313.231449,312.569265 313.062763,312.371843 C312.369272,308.668206 311.351337,306.209084 309.222665,303.712129 C306.766672,300.853421 304.239458,299.572155 302.684499,299.038895 C302.452496,298.971517 302.247471,298.915308 302.023021,298.84793 C301.869072,300.276203 302.525514,302.355197 303.040956,303.554673 C304.041626,305.974521 305.128263,308.102158 306.822424,310.041712 C308.209406,311.689774 310.401744,313.301445 312.77213,312.675225 C312.88939,312.863668 313.521733,313.773453 313.60734,313.912893 C313.67002,314.01632 313.766518,314.117822 313.867327,314.151924 C313.956326,314.467342 314.048653,314.781375 314.144364,315.093993 C315.556866,319.669456 317.393435,323.936383 319.620415,327.797866 C319.370525,327.665191 319.115232,327.534893 318.866073,327.374472 C317.254642,324.02394 315.518757,321.760467 312.867449,320.092587 C309.830549,318.142224 307.29866,318.107994 305.665287,318.107994 C305.433284,318.107994 305.216029,318.119164 304.984026,318.12637 C305.391919,321.437988 309.471214,325.805678 311.747001,327.218097 C313.455909,328.339385 316.532016,329.188998 318.6463,327.805765 C318.809601,327.934396 319.695888,328.455405 319.796243,328.551969 C319.898252,328.656914 320.038157,328.739816 320.156576,328.707179 C322.456228,332.522242 325.147389,335.920184 328.195915,338.802685 C327.949593,338.780614 327.699193,338.759727 327.442628,338.713459 C325.223313,336.113815 323.125935,334.646269 320.110976,334.097155 C316.614746,333.464809 313.651223,334.355137 312.083675,335.015588 C311.866419,335.093775 311.64197,335.189257 311.446656,335.29591 C312.012815,336.560961 313.655899,337.856279 314.676352,338.478897 C316.637047,339.772053 318.665723,340.713906 321.050857,341.109888 C323.018746,341.503708 325.696671,341.408225 327.364574,339.290317 C327.784337,339.35157 328.468116,339.463987 328.907303,339.492091 C328.919564,339.493235 328.931564,339.493378 328.943282,339.492539 C332.097521,342.334257 335.617421,344.636249 339.467226,346.295556 C339.20717,346.352289 338.93948,346.407822 338.651066,346.438887 C335.718837,344.697504 333.348091,343.912747 330.271984,344.360253 C326.727195,344.865049 324.158977,346.646787 322.772355,347.777803 C322.569487,347.945348 322.379209,348.090913 322.196124,348.270348 C323.052917,349.324618 324.966851,350.023982 326.094853,350.320157 C328.321361,350.94854 330.513699,351.189588 332.950269,350.837204 C334.964558,350.568051 337.588889,349.637728 338.733796,347.049254 C339.136654,346.931432 339.852086,346.84712 340.286597,346.724974 C340.324187,346.718077 340.356462,346.701065 340.383436,346.675789 Z" id="laurel-left"></path>
        </g>
    </g>
</svg>