<?xml version="1.0" encoding="UTF-8" standalone="no"?>
<svg width="47px" height="110px" viewBox="0 0 47 110" version="1.1" xmlns="http://www.w3.org/2000/svg" xmlns:xlink="http://www.w3.org/1999/xlink">
    <!-- Generator: Sketch 3.7 (28169) - http://www.bohemiancoding.com/sketch -->
    <title>laurel-right</title>
    <desc>Created with Sketch.</desc>
    <defs></defs>
    <g id="Page-1" stroke="none" stroke-width="1" fill="none" fill-rule="evenodd">
        <g id="Artboard-1" transform="translate(-412.000000, -241.000000)" fill="#FFFFFF">
            <path d="M450.383436,346.675789 C453.101026,347.760564 455.977307,348.529596 459.000195,348.948093 C458.995159,348.517521 458.863151,348.130187 458.648414,347.849865 C455.54533,347.38074 452.576771,346.460866 449.734826,345.261391 C449.684002,345.240083 449.633229,345.218653 449.582507,345.197101 C449.573846,345.169708 449.564646,345.143771 449.556777,345.120509 C449.405345,344.533563 449.266144,343.778351 449.166149,343.609365 C449.397792,341.828708 449.37621,340.136688 448.907169,338.366119 C448.453234,336.668694 447.645001,334.987483 446.785691,333.765669 C445.528199,331.885566 443.575418,330.354605 441.85392,329.481211 C441.758961,329.452025 441.663642,329.401942 441.575876,329.381044 C441.612565,329.559758 441.663642,329.722259 441.685583,329.906738 C442.381232,333.77828 442.574388,337.604422 444.366386,340.85803 C445.662725,342.748582 447.637807,344.191267 448.773003,343.922475 C448.938148,344.270867 448.986822,344.624097 449.072334,344.975467 C445.082043,343.20375 441.415348,340.674332 438.164504,337.533706 C438.167897,337.475965 438.165966,337.415695 438.16993,337.363374 C438.16993,336.752287 438.135759,335.844663 438.101588,335.610101 C438.812344,333.951949 439.192901,332.332712 439.214842,330.393518 C439.227072,328.551969 438.975645,326.629709 438.506963,325.07785 C437.82822,322.701959 436.397715,320.282471 434.966851,318.719802 C434.895991,318.646299 434.803549,318.573876 434.730172,318.496049 C434.717942,318.696382 434.725136,318.887347 434.696001,319.065701 C434.268684,323.206034 433.372685,327.251967 434.193148,331.18332 C434.910738,333.631273 436.456345,335.406885 437.625712,335.777285 C437.698934,336.215745 437.703353,336.6601 437.717636,337.095538 C434.692528,334.085171 432.039984,330.538748 429.837048,326.578615 C429.861967,326.512074 429.876496,326.431619 429.896238,326.365601 C430.04767,325.794509 430.154858,324.842207 430.172124,324.635388 C431.263437,323.268368 432.022752,321.816675 432.53064,319.989898 C433.018746,318.198432 433.252907,316.270408 433.196794,314.607573 C433.136006,312.070263 432.393597,309.256594 431.419544,307.246419 C431.360914,307.162106 431.319549,307.060138 431.263437,306.972223 C431.195095,307.150576 431.138982,307.329291 431.09474,307.497916 C429.6351,311.324059 427.816125,315.006077 427.633041,319.072907 C427.796702,321.755783 428.616805,323.950437 429.671429,324.618453 C429.639812,325.051112 429.582347,325.526083 429.506905,325.975787 C427.222865,321.739208 425.44715,317.045824 424.27119,312.040825 C424.5591,311.814914 425.044229,310.437483 425.13784,310.164938 C426.548922,309.261278 427.684477,308.159447 428.641264,306.55174 C429.566398,305.026903 430.284348,303.252732 430.691882,301.638179 C431.300126,299.21869 431.319549,296.248286 430.931439,294.013277 C430.90698,293.901941 430.892232,293.783399 430.858061,293.670982 C430.748354,293.817628 430.648,293.969319 430.540451,294.12065 C428.280131,297.297872 425.46732,300.181081 424.205512,304.012988 C423.44368,306.622361 423.768124,309.128324 424.708365,310.019373 C424.530116,310.470443 424.322783,310.960526 424.126658,311.410602 C423.105248,306.84537 422.580869,302.028538 422.621842,297.068603 C422.933484,296.943517 423.618354,295.814808 423.746183,295.592881 C425.274524,295.145374 426.575899,294.438805 427.816125,293.184202 C429.002757,291.963828 430.037598,290.484031 430.738283,289.006035 C431.822402,286.826154 432.420574,283.923488 432.486398,281.604527 C432.498627,281.469771 432.486398,281.35303 432.474168,281.239532 C432.347196,281.364199 432.22526,281.475896 432.100805,281.598762 C429.300584,283.957718 426.419432,285.603979 424.439673,288.977931 C423.199447,291.291488 422.953056,293.709895 423.472815,295.386422 C423.234301,295.753463 422.920813,296.057185 422.631005,296.387902 C422.644323,295.674045 422.669356,294.957341 422.706306,294.238111 C422.905531,290.02554 423.527643,285.825006 424.531585,281.73638 C424.87255,281.676919 425.707288,280.882994 425.870538,280.731493 C427.349601,280.80896 428.695218,280.563949 430.098746,279.795766 C431.446521,279.072622 432.740342,277.997093 433.700007,276.871121 C435.181948,275.195315 436.397715,272.708448 436.998045,270.585136 C437.032216,270.473439 437.056675,270.361022 437.083653,270.248966 C436.929703,270.305174 436.788343,270.383362 436.649142,270.445335 C433.573035,271.734168 430.189029,272.567207 427.633041,275.043984 C425.973051,276.791493 425.557963,278.635564 425.682418,280.467385 C425.37986,280.70109 425.018176,280.887234 424.689439,281.106716 C425.831301,276.643827 427.428197,272.321196 429.426267,268.269839 C429.428167,268.272247 429.430156,268.274511 429.432232,268.276623 C429.595893,268.467228 430.714183,267.89073 430.909497,267.783718 C432.22526,268.288874 433.462968,268.444528 434.884121,268.176817 C436.246284,267.908025 437.615641,267.341616 438.724219,266.596493 C440.389245,265.52673 442.005352,263.655635 443.013935,261.92362 C443.050264,261.833902 443.096665,261.749229 443.140547,261.665637 C443.006381,261.678608 442.872215,261.688697 442.720784,261.699867 C439.718055,261.969019 436.519652,261.721846 433.711877,263.212452 C431.866285,264.278252 430.948344,265.829391 430.794755,267.481777 C430.439339,267.642636 430.007301,267.739823 429.624043,267.87232 C431.370027,264.393456 433.413138,261.119594 435.718819,258.134797 C435.930457,258.320427 436.998685,258.038813 437.183648,257.963802 C438.419198,258.781708 439.62993,259.111392 441.050723,259.145622 C442.408209,259.190661 443.795191,258.921869 444.942616,258.433647 C446.663754,257.734284 448.414028,256.326909 449.544547,254.786219 C449.607853,254.701907 449.673678,254.635249 449.712884,254.546612 C449.578718,254.540487 449.427287,254.529318 449.295639,254.501213 C446.607282,254.12613 444.097694,253.426045 441.819749,253.884361 C439.925239,254.27746 437.850161,255.296059 437.112788,257.639162 C436.762371,257.711658 436.364883,257.745527 435.993268,257.782458 C437.740872,255.557487 439.63588,253.497515 441.663642,251.638182 C441.705366,251.571525 441.685583,251.599269 441.629471,251.56612 C441.719754,251.599269 441.72479,251.571525 441.888091,251.469917 C442.212895,251.173021 442.481587,250.988181 442.806391,250.690925 C444.634718,250.703896 446.36341,250.165591 448.001458,249.068084 C448.72912,248.573737 449.453904,247.98571 450.064306,247.2795 C451.519629,245.711427 452.693672,243.419849 453.230696,241.319236 C453.257673,241.201054 453.279614,241.117461 453.287168,241 C453.153002,241.056209 453.028188,241.117461 452.894022,241.179795 C449.942369,242.361615 447.095747,242.916134 444.725361,245.211675 C443.121124,246.742276 442.278719,248.601481 442.615753,250.406279 C442.252102,250.69741 441.86615,250.966202 441.519404,251.308137 C441.468201,251.345729 441.449744,251.383754 441.451462,251.418643 C441.438394,251.410076 441.417998,251.427428 441.390274,251.459828 C438.741541,253.966246 436.304461,256.709045 434.117855,259.66166 C434.177704,259.229428 434.215665,258.823917 434.293143,258.35546 C436.544111,255.958311 437.81599,253.58242 438.523869,250.344666 C439.236784,246.95486 439.136788,244.25505 438.824214,242.361615 C438.790043,242.132457 438.729255,241.901858 438.665589,241.665855 C436.687989,243.246899 435.294173,245.330578 434.107541,247.710432 C433.487428,248.99458 432.984575,250.321966 432.750414,251.767173 C432.259431,253.879677 432.40115,256.989161 433.973375,258.260698 C433.917262,258.534895 433.780578,259.481432 433.763313,259.683566 C433.717855,259.864836 433.675701,260.046579 433.757341,260.153504 C431.19668,263.683215 428.991452,267.506062 427.206447,271.577709 C427.223497,271.15268 427.237439,270.702541 427.254642,270.338323 C428.866073,267.598518 429.725383,264.624871 429.766748,261.206961 C429.830414,257.262997 428.851326,254.758115 428.074745,253.174188 C427.972233,252.961244 427.867561,252.74794 427.762531,252.540761 C426.910415,253.577016 426.107217,255.549358 425.743566,256.776577 C424.998639,259.23606 424.461615,261.795349 424.395791,264.389949 C424.339678,266.647297 424.874184,269.167312 426.771213,270.623689 C426.756465,270.847442 426.7151,271.946751 426.702871,272.098442 C426.678244,272.259069 426.683011,272.457645 426.786451,272.558933 C425.196577,276.36479 423.971272,280.380831 423.161938,284.571877 C423.078266,284.165007 422.980773,283.738229 422.906656,283.324652 C423.633958,280.663395 424.03214,278.233097 423.90265,275.621203 C423.7023,271.958281 422.335101,268.781779 420.189164,266.214563 C420.028021,266.02504 419.893855,265.834075 419.747459,265.661126 C419.142094,266.920413 418.74643,269.082999 418.634205,270.371832 C418.411914,273.005705 418.421626,275.649307 418.880596,278.216162 C419.278418,280.406133 420.260024,282.618802 422.447326,283.570023 C422.471785,283.800622 422.721053,284.864981 422.752706,285.027481 C422.752706,285.232817 422.815806,285.463914 422.993269,285.481772 C422.702179,287.12023 422.47447,288.784735 422.31316,290.473222 C422.061777,293.169303 421.920402,295.827615 421.912618,298.435751 C421.772623,298.176033 421.627407,297.917505 421.485503,297.621792 C421.705276,293.851858 421.485503,291.094398 420.045286,287.985635 C418.411914,284.405224 416.151234,282.355775 414.769288,281.346905 C414.595916,281.196655 414.405637,281.071627 414.205287,280.944797 C413.893073,282.399733 413.985874,284.669332 414.183346,285.980144 C414.544839,288.657615 415.121069,290.973333 416.185405,293.370122 C417.100828,295.419571 418.7342,297.67764 421.129046,297.82825 C421.204941,298.03615 421.64197,299.027725 421.705276,299.184461 C421.737227,299.323308 421.812909,299.471685 421.91729,299.530003 C421.971527,304.196216 422.468812,308.69442 423.546463,312.952397 C423.391593,312.762308 423.231449,312.569265 423.062763,312.371843 C422.369272,308.668206 421.351337,306.209084 419.222665,303.712129 C416.766672,300.853421 414.239458,299.572155 412.684499,299.038895 C412.452496,298.971517 412.247471,298.915308 412.023021,298.84793 C411.869072,300.276203 412.525514,302.355197 413.040956,303.554673 C414.041626,305.974521 415.128263,308.102158 416.822424,310.041712 C418.209406,311.689774 420.401744,313.301445 422.77213,312.675225 C422.88939,312.863668 423.521733,313.773453 423.60734,313.912893 C423.67002,314.01632 423.766518,314.117822 423.867327,314.151924 C423.956326,314.467342 424.048653,314.781375 424.144364,315.093993 C425.556866,319.669456 427.393435,323.936383 429.620415,327.797866 C429.370525,327.665191 429.115232,327.534893 428.866073,327.374472 C427.254642,324.02394 425.518757,321.760467 422.867449,320.092587 C419.830549,318.142224 417.29866,318.107994 415.665287,318.107994 C415.433284,318.107994 415.216029,318.119164 414.984026,318.12637 C415.391919,321.437988 419.471214,325.805678 421.747001,327.218097 C423.455909,328.339385 426.532016,329.188998 428.6463,327.805765 C428.809601,327.934396 429.695888,328.455405 429.796243,328.551969 C429.898252,328.656914 430.038157,328.739816 430.156576,328.707179 C432.456228,332.522242 435.147389,335.920184 438.195915,338.802685 C437.949593,338.780614 437.699193,338.759727 437.442628,338.713459 C435.223313,336.113815 433.125935,334.646269 430.110976,334.097155 C426.614746,333.464809 423.651223,334.355137 422.083675,335.015588 C421.866419,335.093775 421.64197,335.189257 421.446656,335.29591 C422.012815,336.560961 423.655899,337.856279 424.676352,338.478897 C426.637047,339.772053 428.665723,340.713906 431.050857,341.109888 C433.018746,341.503708 435.696671,341.408225 437.364574,339.290317 C437.784337,339.35157 438.468116,339.463987 438.907303,339.492091 C438.919564,339.493235 438.931564,339.493378 438.943282,339.492539 C442.097521,342.334257 445.617421,344.636249 449.467226,346.295556 C449.20717,346.352289 448.93948,346.407822 448.651066,346.438887 C445.718837,344.697504 443.348091,343.912747 440.271984,344.360253 C436.727195,344.865049 434.158977,346.646787 432.772355,347.777803 C432.569487,347.945348 432.379209,348.090913 432.196124,348.270348 C433.052917,349.324618 434.966851,350.023982 436.094853,350.320157 C438.321361,350.94854 440.513699,351.189588 442.950269,350.837204 C444.964558,350.568051 447.588889,349.637728 448.733796,347.049254 C449.136654,346.931432 449.852086,346.84712 450.286597,346.724974 C450.324187,346.718077 450.356462,346.701065 450.383436,346.675789 Z" id="laurel-right" transform="translate(435.500195, 296.000000) scale(-1, 1) translate(-435.500195, -296.000000) "></path>
        </g>
    </g>
</svg>