<?xml version="1.0" encoding="UTF-8" standalone="no"?>
<svg width="21px" height="18px" viewBox="0 0 21 18" version="1.1" xmlns="http://www.w3.org/2000/svg" xmlns:xlink="http://www.w3.org/1999/xlink">
    <!-- Generator: Sketch Beta 3.6 (26304) - http://www.bohemiancoding.com/sketch -->
    <title>Fill 2</title>
    <desc>Created with Sketch Beta.</desc>
    <defs></defs>
    <g id="v1.2" stroke="none" stroke-width="1" fill="none" fill-rule="evenodd">
        <g id="Acorns-Mobile" transform="translate(-62.000000, -8953.000000)" fill="#FFFFFF">
            <g id="Footer" transform="translate(0.000000, 7333.000000)">
                <path d="M83,1622.51208 C82.2283516,1622.85381 81.3972378,1623.08433 80.5254518,1623.18799 C81.4154701,1622.65738 82.0982008,1621.81633 82.4199313,1620.81351 C81.587415,1621.30528 80.66542,1621.66265 79.6842401,1621.85517 C78.8982863,1621.02083 77.7782601,1620.5 76.5390225,1620.5 C74.1604045,1620.5 72.2308627,1622.42183 72.2308627,1624.79212 C72.2308627,1625.12798 72.2690104,1625.4549 72.3427812,1625.7698 C68.7619512,1625.59097 65.5870009,1623.88206 63.4619525,1621.28544 C63.0908544,1621.91888 62.8790789,1622.65626 62.8790789,1623.44338 C62.8790789,1624.93211 63.6392269,1626.24593 64.7951567,1627.01544 C64.0894252,1626.99309 63.4249269,1626.80001 62.8440167,1626.47812 C62.8434557,1626.49656 62.8434557,1626.51473 62.8434557,1626.53317 C62.8434557,1628.61119 64.3286895,1630.34553 66.2997449,1630.74119 C65.9384642,1630.83842 65.5572682,1630.89123 65.1645718,1630.89123 C64.8868794,1630.89123 64.6164799,1630.86497 64.3539343,1630.81411 C64.9023068,1632.51884 66.4932881,1633.76001 68.3785112,1633.79437 C66.9039363,1634.94529 65.0464824,1635.6321 63.0277425,1635.6321 C62.6799257,1635.6321 62.3371579,1635.61142 62,1635.57146 C63.9068214,1636.79 66.1715576,1637.5 68.6045921,1637.5 C76.5292051,1637.5 80.8626097,1630.96025 80.8626097,1625.28893 C80.8626097,1625.10311 80.8589632,1624.9173 80.8508288,1624.73317 C81.6926015,1624.12935 82.4230168,1623.37268 83,1622.51208" id="Fill-2"></path>
            </g>
        </g>
    </g>
</svg>