<?xml version="1.0" encoding="utf-8"?>
<!-- Generator: Adobe Illustrator 19.2.1, SVG Export Plug-In . SVG Version: 6.00 Build 0)  -->
<svg version="1.1" id="Layer_1" xmlns:sketch="http://www.bohemiancoding.com/sketch/ns"
	 xmlns="http://www.w3.org/2000/svg" xmlns:xlink="http://www.w3.org/1999/xlink" x="0px" y="0px" viewBox="0 0 458 110"
	 style="enable-background:new 0 0 458 110;" xml:space="preserve">
<style type="text/css">
	.st0{fill:#505050;}
</style>
<title>Imported Layers</title>
<desc>Created with Sketch.</desc>
<g id="FINAL" sketch:type="MSPage">
	<g id="Logos" transform="translate(-2371.000000, -184.000000)" sketch:type="MSArtboardGroup">
		<g id="Imported-Layers" transform="translate(2371.000000, 184.000000)" sketch:type="MSLayerGroup">
			<path id="Fill-1" sketch:type="MSShapeGroup" class="st0" d="M433.8,91.2c1.6-0.5,3.1-1.1,4.5-1.9c5-2.7,7.5-6.9,7.8-12.5
				c0.1-2.9-0.2-5.8-1.4-8.4c-1.6-3.6-4.6-5.8-8.2-7.2c-3.4-1.4-7-2-10.7-2.6c-5.4-0.8-10.8-1.4-16.1-2.6c-1.1-0.2-2.1-0.5-3.1-1
				c-0.9-0.5-1.5-1.2-1.5-2.4c0-1.2,0.4-2,1.4-2.6c1.5-0.9,3.2-1.1,4.8-1.3c3.9-0.3,7.9-0.4,11.8,0.3c0.6,0.1,1.3,0.3,1.9,0.5
				c2.1,0.6,3.5,1.8,3.5,4.1c0,0.6,0.2,0.7,0.7,0.6c4.7,0,9.4,0,14,0c0.6,0,0.7-0.2,0.7-0.7c-0.2-7.5-3.7-12.3-10.8-15
				c-3.7-1.4-7.6-2.1-11.5-2.4c-4.7-0.4-9.3-0.3-14,0.3c-3.7,0.5-7.3,1.4-10.6,3.3c-5.2,2.9-7.8,7.3-7.5,13.4c0.2,3.2,0.8,6.3,2.8,9
				c2.1,2.9,5,4.5,8.2,5.7c3.1,1.1,6.4,1.5,9.6,2c5.1,0.8,10.2,1.4,15.3,2.4c1.1,0.2,2.2,0.5,3.2,1.1c1.1,0.6,1.8,1.4,1.9,2.7
				c0,1.4-0.5,2.5-1.7,3.2c-1.3,0.8-2.8,1.1-4.3,1.3c-5,0.5-10.1,0.5-15.1-0.3c-0.4-0.1-0.9-0.2-1.3-0.3c-2.4-0.7-3.4-1.9-3.6-4.5
				c0-0.5-0.1-0.7-0.7-0.7c-4.8,0-9.6,0-14.4,0c-0.4,0-0.8-0.1-0.8,0.5c0.1,4.1,0.9,7.9,3.9,11c2.1,2.2,4.6,3.4,7.4,4.3
				c0.4,0.1,0.9,0.3,1.3,0.6h-1.1c-8.9,0-17.9,0-26.9,0c-1.1,0-1.1,0-0.7-1c6.3-17.4,12.6-34.7,18.8-52.1c0.1-0.2,0.2-0.5,0.2-0.8
				h-0.8c-4.6,0-9.2,0-13.8,0c-0.8,0-1,0.3-1.2,0.9c-4.1,12.9-8.1,25.8-12.2,38.7c-0.1,0.2-0.1,0.4-0.3,0.8c-0.5-1.6-1-3.1-1.4-4.6
				c-3.6-11.7-7.1-23.5-10.6-35.2c-0.2-0.5-0.4-0.7-0.9-0.7c-5.4,0-10.8,0-16.2,0c-0.7,0-0.9,0.2-1.1,0.8c-3.1,10.5-6.2,21-9.3,31.4
				c-0.7,2.4-1.4,4.8-2.1,7.2c-0.1,0.3-0.2,0.5-0.3,1c-0.5-1.5-0.9-2.8-1.3-4c-3.8-11.9-7.7-23.8-11.5-35.7c-0.2-0.5-0.4-0.8-1-0.7
				c-5.2,0-10.5,0-15.8,0c0.5,1.3,0.9,2.5,1.3,3.7c5.7,15.8,11.3,31.6,17,47.4c0.3,0.7,0.5,1.5,0.8,2.2c0.1,0.4,0.1,0.6-0.4,0.6
				c-10.5,0-20.9,0-31.4,0c0,0-0.1,0-0.3-0.1c1.6-0.5,3.1-1,4.5-1.7c6.3-3,10.6-7.7,12.6-14.5c0.2-0.6,0.2-0.8-0.6-0.8
				c-4.7,0-9.4,0-14.1,0c-0.5,0-0.7,0.1-1,0.6c-0.8,1.7-2.3,2.7-3.9,3.5c-2.7,1.3-5.7,1.8-8.7,1.9c-3.3,0.1-6.6-0.1-9.8-1.2
				c-3.3-1.1-5.6-3.3-7-6.4c-0.3-0.7-0.5-1.5-0.5-2.2c0-0.4,0.1-0.7,0.5-0.6c0.3,0,0.6,0,0.9,0h43.4c1.2,0,1.2,0,1.3-1.2
				c0.5-5.8-0.1-11.4-2.5-16.8c-3.1-6.9-8.4-11.5-15.5-13.7c-9.8-3-19.7-2.9-29.1,1.6c-8.3,4-13.2,10.8-14.5,19.9
				c-0.8,5.5-0.4,10.9,1.3,16.1c2.5,7.4,7.6,12.3,14.9,14.9c0.6,0.2,1.1,0.4,1.7,0.6c0,0,0,0,0.1,0.1c-0.3,0-0.5,0-0.7,0
				c-6.3,0-12.7,0-19,0c-0.7,0-0.9-0.2-0.9-0.9c0-16.2,0-32.5,0-48.7c0-7.6,0-15.3,0-22.9c0-0.7-0.2-0.9-0.9-0.9
				c-4.6,0-9.1,0-13.7,0c-0.8,0-1,0.3-1,1c0,15,0,30.1,0,45.1v1.1c-0.3,0.1-0.3-0.2-0.4-0.3c-8-13.4-16-26.8-24-40.1
				c-1.2-2.1-2.5-4.1-3.7-6.2c-0.2-0.4-0.5-0.5-0.9-0.5c-5.9,0-11.7,0-17.6,0c-0.5,0-0.7,0.1-0.6,0.6c0,0.4,0,0.9,0,1.3
				c0,23.5,0,47.1,0,70.6c0,0.7-0.2,0.9-0.9,0.9c-1.9-0.1-1.9,0-1.9-1.9c0-3.9,0-7.8,0-11.7c0-0.7-0.2-0.9-0.9-0.8
				c-3.3,0-6.6,0-9.9,0c-0.7,0-0.9-0.1-0.7-0.8c1-3.9,0.9-7.9-0.1-11.8c-1.6-5.9-5.5-9.5-10.9-12c-4.1-1.9-8.4-2.7-12.8-3.6
				c-5.8-1.2-11.7-2.1-17.3-3.9c-1.7-0.6-3.4-1.2-4.8-2.3c-2.7-2-3.5-6.3-1.6-8.9c1.2-1.6,2.9-2.2,4.7-2.6c3.7-0.8,7.4-0.9,11.1-0.7
				c2.2,0.1,4.4,0.3,6.5,0.9c4.2,1.2,6.8,3.9,7.6,8.2c0.1,0.6,0.4,0.7,0.9,0.7c5,0,10,0,15.1,0c0.7,0,0.9-0.1,0.8-0.9
				c-1.5-9.6-6.5-16.2-15.7-19.6c-4.5-1.6-9.1-2.3-13.8-2.5c-6-0.3-12,0.1-17.9,1.6c-3.6,0.9-6.9,2.3-9.9,4.5
				c-5.4,4.1-7.5,9.6-7.1,16.2c0.4,7.7,4.6,12.9,11.3,16.4c4.2,2.2,8.8,3.2,13.4,4.1c5.1,1,10.3,1.8,15.4,3.1c1.8,0.5,3.5,1,5.1,1.9
				c2.1,1.2,3.5,2.9,3.8,5.3c0.4,3.2,0,5.6-3,7.6c-0.9,0.6-1.9,1-3,1.3c-4,1.1-8.2,1.1-12.3,0.9c-2.6-0.1-5.2-0.4-7.7-1.3
				c-4.2-1.4-6.4-4.4-6.7-8.7c0-0.6-0.2-0.7-0.8-0.7c-5.1,0-10.1,0-15.2,0c-0.4,0-0.8,0-0.8,0.6c0.2,4.5,1.1,8.7,3.7,12.5
				c2.5,3.6,6,6,10,7.5c1.2,0.5,2.5,0.8,3.7,1.3c-0.2,0.2-0.4,0.1-0.7,0.1c-5.2,0-10.4,0-15.6,0c-0.6,0-0.8-0.2-0.8-0.8
				c0-4.3,0-8.6,0-12.8c0-0.7-0.2-0.9-0.8-0.9c-3.3,0-6.6,0-9.8,0c-0.7,0-0.8-0.2-0.6-0.8c0.6-2.1,0.9-4.3,0.9-6.5
				c0-16.9,0-33.8,0-50.6c0-0.8-0.2-1-1-1c-4.8,0-9.6,0-14.4,0c-0.7,0-0.9,0.2-0.9,0.9c0,15.8-0.1,31.7,0.1,47.5
				c0.1,6.5-3.5,10.5-8.8,12.1c-5.6,1.7-11.3,1.6-16.7-0.7c-4.4-1.9-6.7-5.4-6.7-10.2c0-16.2,0-32.3,0-48.5c0-0.9-0.2-1.1-1.1-1.1
				c-4.8,0-9.6,0-14.4,0c-0.6,0-0.8,0.1-0.8,0.8c0,16.9,0,33.8,0,50.6c0,5.9,1.9,11.3,6.2,15.5c3.1,3,6.8,4.8,10.9,6
				c0.3,0.1,0.5,0.2,0.8,0.4h-1.4c-10.2,0-20.4,0-30.5,0c-0.7,0-0.9-0.1-0.9-0.9c0-29.5,0-59.1,0-88.6c0-0.9,0.3-1.1,1.1-1.1
				c151.3,0,302.7,0,454,0c0.8,0,1.8-0.4,2.2,0.2c0.4,0.5,0.1,1.4,0.1,2.2c0,29.1,0,58.2,0,87.4c0,0.6,0,0.9-0.8,0.9
				c-7.5,0-15,0-22.5,0C434.3,91.3,434,91.4,433.8,91.2L433.8,91.2z M271.8,23c0.6,2.3,1.1,4.4,1.6,6.5c0.6,2.2,0.6,2.2,2.8,2.2
				c0.9,0,1.9,0.3,2.6-0.2c0.6-0.5,0.6-1.6,0.8-2.4c1.1-3.8,2.1-7.6,3.2-11.4c0.1-0.4,0.2-0.7-0.4-0.7c-1.1,0-2.2,0-3.3,0
				c-0.4,0-0.5,0.2-0.6,0.6c-0.3,1.2-0.6,2.4-0.9,3.6c-0.4,1.6-0.7,3.1-1.1,4.7c-0.8-2.7-1.5-5.5-2.1-8.2c-0.1-0.5-0.3-0.7-0.8-0.7
				c-1.1,0-2.1,0.1-3.2,0c-0.6,0-0.9,0.2-1,0.8c-0.6,2.7-1.3,5.5-2,8.3c-0.1-0.4-0.2-0.6-0.2-0.9c-0.6-2.6-1.3-5.1-1.9-7.7
				c-0.1-0.3-0.1-0.5-0.5-0.5c-1.4,0-2.9,0-4.4,0c0,0.2,0,0.3,0,0.4c1.3,4.6,2.6,9.1,3.9,13.7c0.1,0.4,0.4,0.5,0.7,0.5
				c1.2,0,2.3,0,3.5,0c0.7,0,0.9-0.2,1-0.8C270.4,28.3,271.1,25.8,271.8,23L271.8,23z M315.3,31.6c-1.1-1.8-2-3.5-3-5.1
				c-0.3-0.5-0.4-0.8,0.3-1c0.4-0.1,0.7-0.5,0.9-0.9c0.8-1.3,0.9-2.7,0.7-4.1c-0.3-2-1.4-3.1-3.4-3.4c-3.4-0.4-6.8-0.1-10.2-0.2
				c-0.4,0-0.4,0.3-0.4,0.6c0,4.5,0,8.9,0,13.4c0,0.5,0.2,0.6,0.7,0.6c1.1,0,2.2,0,3.2,0c0.4,0,0.6-0.1,0.6-0.6c0-0.7,0-1.4,0-2.1
				c0-0.7-0.3-1.7,0.1-2.1c0.5-0.5,1.5-0.1,2.2-0.2c0.5-0.1,0.8,0.2,1,0.6c0.6,1.3,1.3,2.5,2,3.8c0.2,0.3,0.3,0.5,0.7,0.5
				C312.1,31.6,313.6,31.6,315.3,31.6L315.3,31.6z M429.1,31.6c-1.1-1.8-2-3.5-3-5.1c-0.3-0.5-0.4-0.7,0.3-1c0.5-0.2,0.8-0.6,1.1-1
				c0.6-1,0.7-2.2,0.7-3.4c-0.1-2.2-1.3-3.7-3.5-3.9c-3.4-0.4-6.8-0.1-10.2-0.2c-0.5,0-0.4,0.3-0.4,0.6c0,4.5,0,9,0,13.4
				c0,0.5,0.2,0.6,0.6,0.6c1.1,0,2.1,0,3.2,0c0.5,0,0.7-0.1,0.6-0.6c0-1.2,0-2.4,0-3.6c0-0.5,0.1-0.7,0.6-0.7c0.6,0,1.1,0,1.7,0
				c0.5,0,0.8,0.2,1,0.6c0.6,1.2,1.3,2.5,1.9,3.7c0.1,0.3,0.2,0.6,0.6,0.6C425.9,31.6,427.4,31.6,429.1,31.6L429.1,31.6z
				 M366.1,31.6c-1.1-1.8-2-3.4-3-5c-0.3-0.5-0.5-0.8,0.2-1.1c0.5-0.2,0.9-0.7,1.2-1.2c0.6-1.2,0.7-2.6,0.5-3.9
				c-0.3-1.7-1.3-2.8-2.9-3.1c-0.6-0.1-1.2-0.2-1.9-0.2c-2.8,0-5.6,0-8.5,0c-0.6,0-0.7,0.1-0.7,0.7c0,2.1,0,4.2,0,6.3
				c0,2.3,0,4.6,0,6.8c0,0.6,0.2,0.8,0.8,0.8c1,0,1.9,0,2.9,0c0.6,0,0.8-0.2,0.8-0.8c0-0.6,0-1.1,0-1.7c0-0.8-0.4-1.9,0.2-2.3
				c0.5-0.4,1.5-0.1,2.3-0.1c0.4,0,0.6,0.1,0.8,0.5c0.7,1.3,1.3,2.6,2,3.9c0.1,0.3,0.3,0.6,0.7,0.6
				C362.9,31.6,364.4,31.6,366.1,31.6L366.1,31.6z M329.5,24.2L329.5,24.2c0,2.3,0,4.5,0,6.8c0,0.4,0,0.7,0.5,0.7
				c3,0,6.1,0.1,9.1-0.1c2.6-0.2,4.1-1.8,4.5-4.4c0.2-1.8,0.2-3.5,0.1-5.3c-0.2-2.9-1.7-4.4-4.6-4.7c-3-0.3-6.1-0.1-9.1-0.2
				c-0.5,0-0.4,0.3-0.4,0.6C329.5,19.8,329.5,22,329.5,24.2L329.5,24.2z M247.1,25c0.9-0.6,1.7-1.2,2.3-2.1c1.4-2.2,0.6-4.7-1.8-5.6
				c-1.6-0.6-3.3-0.5-4.9,0.3c-1.4,0.7-2.2,1.8-2.1,3.5c0,1,0.3,1.9,0.9,2.7c0.3,0.4,0.2,0.6-0.2,0.8c-0.5,0.3-1,0.6-1.5,0.9
				c-1.2,0.8-1.5,2.1-1.3,3.5c0.2,1.3,1.1,2,2.2,2.3c2.6,0.8,5.3,0.8,7.9,0.1c0.2-0.1,0.5-0.3,0.7-0.1c0.6,0.6,1.4,0.4,2.1,0.4
				c1.3,0,2.6,0,3.9,0c-0.8-0.8-1.6-1.5-2.5-2.1c-0.4-0.3-0.4-0.4-0.1-0.8c0.7-0.8,1.2-1.7,1.4-2.7c0.3-1.7,0.4-1.4-1.1-1.4
				c-0.4,0-0.7,0-1.1,0c-0.5,0-1.1-0.1-1.6,0.1c-0.4,0.2-0.2,0.9-0.5,1.3c-0.1,0.1-0.1,0.2-0.1,0.3c-0.2,0.4-0.4,0.5-0.7,0.2
				C248.4,26,247.7,25.5,247.1,25L247.1,25z M290.9,16.9c-0.5,0-1,0-1.5,0c-3.1,0.3-5.3,1.9-6,4.7c-0.5,1.9-0.5,3.8,0.1,5.7
				c0.6,2.1,1.9,3.5,4,4.1c2.3,0.7,4.7,0.7,7,0c2-0.6,3.3-2,3.9-4.1c0.4-1.6,0.5-3.2,0.3-4.8c-0.4-3-1.9-4.7-4.8-5.4
				C292.7,16.9,291.8,16.8,290.9,16.9L290.9,16.9z M404.7,16.9c-0.5,0-1,0-1.5,0c-3.3,0.3-5.5,2.1-6.1,5c-0.4,1.8-0.4,3.6,0.1,5.3
				c0.6,2.2,1.9,3.6,4.1,4.2c2.2,0.7,4.5,0.6,6.7,0c2.3-0.6,3.6-2.2,4.2-4.4c0.4-1.7,0.4-3.5,0-5.3c-0.5-2.4-1.9-3.9-4.3-4.5
				C406.8,16.9,405.7,16.8,404.7,16.9L404.7,16.9z M367.3,24.3c0,2.2,0,4.4,0,6.7c0,0.5,0.1,0.7,0.7,0.7c3.7,0,7.5,0,11.2,0
				c0.6,0,0.7-0.2,0.7-0.7c0-0.7,0-1.3,0-2c0-0.6-0.1-0.8-0.8-0.8c-2,0-4,0-6,0c-1.4,0-1.3,0-1.4-1.4c0-0.7,0.2-0.7,0.8-0.7
				c2.1,0,4.2,0,6.3,0c0.5,0,0.7-0.1,0.7-0.7c0-0.7,0-1.4,0-2.1c0-0.6-0.2-0.7-0.7-0.7c-2.1,0-4.2,0-6.2,0c-0.6,0-0.9-0.1-0.8-0.8
				c0-0.1,0-0.3,0-0.4c-0.1-0.7,0.1-1,0.9-1c2.1,0.1,4.2,0,6.2,0c0.7,0,1-0.1,0.9-0.9c-0.1-0.6-0.1-1.3,0-1.9c0-0.6-0.1-0.8-0.7-0.8
				c-3.7,0-7.3,0-11,0c-0.6,0-0.7,0.2-0.7,0.8C367.3,20,367.3,22.1,367.3,24.3L367.3,24.3z M387.1,17c-1.7,0-3.2,0-4.6,0
				c-0.6,0-0.8,0.1-0.8,0.8c0,2,0,3.9,0,5.9c0,2.4,0,4.8,0,7.2c0,0.6,0.2,0.8,0.8,0.8c1.1,0,2.1,0,3.2,0c0.5,0,0.6-0.2,0.6-0.6
				c0-1,0-1.9,0-2.9c-0.1-0.8,0.2-1.1,1-1c1.6,0.1,3.2,0.2,4.9-0.1c2.1-0.3,3.4-1.5,3.7-3.5c0.1-0.8,0.1-1.6,0-2.4
				c-0.2-2.2-1.5-3.6-3.7-3.9C390.3,16.9,388.6,17.1,387.1,17L387.1,17z M436.1,17c-1.4,0-2.7,0-4.1,0c-0.9,0-2.2-0.4-2.7,0.2
				c-0.5,0.6-0.1,1.8-0.1,2.7c0,0,0,0.1,0,0.1c-0.1,0.5,0.2,0.6,0.6,0.6c1.1,0,2.2,0,3.2,0c0.7,0,0.9,0.2,0.8,0.9c0,3.2,0,6.3,0,9.5
				c0,0.5,0.1,0.8,0.7,0.7c1.1,0,2.1,0,3.2,0c0.6,0,0.8-0.2,0.7-0.8c0-2.8,0-5.6,0-8.4c0-1.9,0-1.9,1.9-1.9c0.9,0,2.1,0.4,2.6-0.2
				c0.5-0.6,0.1-1.7,0.2-2.7c0-0.6-0.2-0.7-0.8-0.7C440.3,17.1,438.2,17,436.1,17L436.1,17z M316.5,24.3L316.5,24.3
				c0,2.2,0,4.4,0,6.7c0,0.4,0.1,0.7,0.6,0.7c3.5,0,6.9,0,10.4,0c0.4,0,0.6-0.1,0.5-0.5c0-0.8,0-1.5,0-2.3c0-0.6-0.1-0.8-0.8-0.8
				c-1.8,0-3.6,0-5.5,0c-0.6,0-0.8-0.1-0.8-0.8c0-3.2,0-6.3,0-9.5c0-0.5-0.1-0.8-0.7-0.7c-1.1,0.1-2.1,0-3.2,0
				c-0.6,0-0.7,0.2-0.7,0.7C316.6,19.9,316.5,22.1,316.5,24.3L316.5,24.3z"/>
			<path id="Fill-2" sketch:type="MSShapeGroup" class="st0" d="M228.9,109.1c-75.8,0-151.7,0-227.5,0c-1.4,0-1.2,0.2-1.2-1.2
				c0-4.4,0-8.9,0-13.3c0-0.8,0.2-1,1-1c47.7,0,95.5,0,143.2,0c104,0,207.9,0,311.9,0c1.3,0,1.3,0,1.3,1.3c0,4.4,0,8.8,0,13.3
				c0,0.8-0.2,1-1,1c-25.9,0-51.8,0-77.7,0C328.9,109.1,279,109.1,228.9,109.1"/>
			<path id="Fill-3" sketch:type="MSShapeGroup" class="st0" d="M214.4,91.2c-0.5,0.2-0.9,0.1-1.3,0.1c-9.1,0-18.1,0-27.2,0
				c-0.6,0-0.9-0.1-0.9-0.8c0-16,0-31.9,0-47.9v-0.3c0.1,0,0.1-0.1,0.2-0.1C195,58.6,204.7,74.9,214.4,91.2"/>
			<path id="Fill-4" sketch:type="MSShapeGroup" class="st0" d="M341.5,55.5c2.8,11.8,7.4,23.2,11.1,34.9c0.3,0.9,0.3,0.9-0.7,0.9
				h-20.7c-1,0-1,0-0.6-0.9c3.4-10,6.9-20,9.9-30.1C341,58.7,341.2,57,341.5,55.5"/>
			<path id="Fill-5" sketch:type="MSShapeGroup" class="st0" d="M265.5,59.3c-4.8,0-9.6,0-14.4,0c-0.9,0-0.9-0.3-0.7-1
				c0.9-3.4,2.8-6,6.1-7.4c6-2.6,12-2.8,18.1-0.3c3.2,1.3,5.3,3.7,6.1,7.2c0,0.2,0.1,0.3,0.1,0.5c0.2,0.8-0.1,1-0.9,1
				C275,59.3,270.3,59.3,265.5,59.3"/>
			<path id="Fill-6" sketch:type="MSShapeGroup" class="st0" d="M61.6,91.3c5.4-1.7,10.3-4.2,14-8.7c0.2,0,0.2,0.2,0.2,0.3
				c0,2.6,0,5.1,0,7.7c0,0.3,0.1,0.7-0.5,0.7C70.7,91.3,66.1,91.3,61.6,91.3"/>
			<path id="Fill-7" sketch:type="MSShapeGroup" class="st0" d="M152.4,82.7c0,2.2,0,4.2,0,6.1c0,0.8,0.4,2-0.2,2.4
				c-0.5,0.4-1.6,0.1-2.4,0.1c-3.6,0-7.2,0-10.8-0.1C144.2,89.6,148.8,87.2,152.4,82.7"/>
			<path id="Fill-8" sketch:type="MSShapeGroup" class="st0" d="M306.9,20.5c0.6,0,1.1,0,1.7,0c0.9,0,1.2,0.4,1.2,1.4
				c0,1.1-0.2,1.5-1.2,1.5c-1.2,0.1-2.4,0-3.6,0c-0.3,0-0.4-0.1-0.4-0.5c0-0.7,0-1.4,0-2.1c0-0.4,0.2-0.5,0.5-0.5
				C305.8,20.5,306.4,20.5,306.9,20.5"/>
			<path id="Fill-9" sketch:type="MSShapeGroup" class="st0" d="M420.4,20.5c0.9,0,1.5,0,2.1,0c0.8,0.1,1.1,0.4,1.1,1.4
				c0,1.1-0.2,1.4-1.1,1.5c-1.2,0.1-2.5,0-3.7,0c-0.3,0-0.4-0.2-0.4-0.4c0-0.1,0-0.2,0-0.3c0-0.7-0.3-1.6,0.1-2
				C419.1,20.2,420,20.6,420.4,20.5"/>
			<path id="Fill-10" sketch:type="MSShapeGroup" class="st0" d="M357.6,20.5c0.7,0,1.2,0,1.8,0c0.9,0,1.2,0.4,1.3,1.2
				c0.1,1.2-0.2,1.6-1.1,1.7c-1.2,0.1-2.4,0-3.6,0c-0.3,0-0.5-0.1-0.5-0.4c0-0.1,0-0.1,0-0.2c0-0.8-0.3-1.7,0.1-2.2
				C356.1,20.2,357,20.6,357.6,20.5"/>
			<path id="Fill-11" sketch:type="MSShapeGroup" class="st0" d="M334,24.3c0-1.1,0-2.2,0-3.2c0-0.5,0.1-0.7,0.6-0.6
				c0.8,0,1.7,0,2.6,0c1.4,0.1,2,0.7,2.2,2c0.2,1.3,0.1,2.6,0,3.9c-0.1,1-0.7,1.6-1.7,1.7c-1,0.1-2.1,0-3.2,0.1
				c-0.5,0-0.5-0.3-0.5-0.6C334,26.5,334,25.4,334,24.3"/>
			<path id="Fill-12" sketch:type="MSShapeGroup" class="st0" d="M246.1,28.6c-1,0.3-1.9,0.2-2.8,0c-0.3-0.1-0.5-0.3-0.6-0.7
				c0-0.5,0.4-0.8,0.8-1c0.3-0.3,0.5,0,0.7,0.2C244.8,27.6,245.4,28.1,246.1,28.6"/>
			<path id="Fill-13" sketch:type="MSShapeGroup" class="st0" d="M246.3,20.8c0,0.8-0.8,1.9-1.2,1.8c-0.6-0.2-0.6-0.8-0.7-1.4
				c0-0.6,0.2-1.1,1-1.2C246,20.1,246.3,20.4,246.3,20.8"/>
			<path id="Fill-14" sketch:type="MSShapeGroup" class="st0" d="M294,24.3c0,0.3,0,0.5,0,0.8c-0.2,2.7-1.4,3.7-4.1,3.3
				c-1.1-0.2-1.8-0.8-2.1-1.8c-0.4-1.5-0.4-3,0-4.5c0.3-0.9,0.9-1.5,1.8-1.7c0.9-0.2,1.8-0.2,2.6,0.1c1.2,0.4,1.6,1.4,1.7,2.5
				C294,23.4,294,23.8,294,24.3L294,24.3"/>
			<path id="Fill-15" sketch:type="MSShapeGroup" class="st0" d="M401.4,24.3c0-0.3,0-0.5,0-0.8c0.1-2.4,1.2-3.4,3.6-3.2
				c1.7,0.1,2.5,0.9,2.8,2.5c0.2,1.2,0.2,2.3-0.1,3.5c-0.4,1.5-1.3,2.1-3,2.1c-1.6,0-2.6-0.6-3.1-2C401.4,25.7,401.4,25,401.4,24.3"
				/>
			<path id="Fill-16" sketch:type="MSShapeGroup" class="st0" d="M388.1,20.5c0.7,0,1.3,0,1.8,0c0.9,0.1,1.3,0.5,1.4,1.5
				c0,1.1-0.3,1.7-1.2,1.7c-1.2,0.1-2.4,0-3.6,0.1c-0.3,0-0.4-0.2-0.4-0.4c0-0.2,0-0.5,0-0.7c0-0.7-0.3-1.6,0.1-2.1
				C386.7,20.2,387.6,20.6,388.1,20.5"/>
		</g>
	</g>
</g>
</svg>
