<?xml version="1.0" encoding="utf-8"?>
<!-- Generator: Adobe Illustrator 19.2.1, SVG Export Plug-In . SVG Version: 6.00 Build 0)  -->
<svg version="1.1" id="Layer_1" xmlns:sketch="http://www.bohemiancoding.com/sketch/ns"
	 xmlns="http://www.w3.org/2000/svg" xmlns:xlink="http://www.w3.org/1999/xlink" x="0px" y="0px" viewBox="0 0 430 88"
	 style="enable-background:new 0 0 430 88;" xml:space="preserve">
<style type="text/css">
	.st0{fill:#505050;}
</style>
<title>Wired Logo 2</title>
<desc>Created with Sketch.</desc>
<g id="FINAL" sketch:type="MSPage">
	<g id="Logos" transform="translate(-750.000000, -202.000000)" sketch:type="MSArtboardGroup">
		<g id="Wired-Logo-2" transform="translate(750.000000, 202.000000)" sketch:type="MSLayerGroup">
			<path id="Fill-1" sketch:type="MSShapeGroup" class="st0" d="M0,0h86v87.9H0V0 M6.3,13.8c3.8,17.9,7.3,35.8,11,53.7
				c0.7,2.1,0.3,5,2.3,6.4c3.8,0.6,7.6,0.5,11.4,0.2c2.1,0.1,2.6-2.4,2.9-3.9c2.6-12.7,5.4-25.5,8-38.2c0.2-1.2,0.6-2.3,1.1-3.4
				c3.2,13.7,5.9,27.5,8.8,41.2c0.4,1.5,0.5,3.3,1.9,4.1c4.1,0.5,8.3,0.5,12.4,0c1.5-0.9,1.5-2.7,1.9-4.1c3.8-18.7,7.3-37.4,11.3-56
				c-3.6,0-7.2,0-10.8,0c-2.9,16.2-5.2,32.6-8.4,48.8c-3.6-13.7-6-27.8-9.1-41.7c-0.7-2.4-0.4-5.8-3-7c-3.2-0.2-6.4-0.2-9.5,0
				c-1.8,0.2-2.2,2.3-2.6,3.7c-2.9,13.7-5.9,27.5-8.7,41.2c-0.3,1.3-0.7,2.5-1.2,3.7c-2.9-16.2-5.6-32.4-8.1-48.7
				C14.2,13.8,10.3,13.8,6.3,13.8"/>
			<path id="Fill-2" sketch:type="MSShapeGroup" class="st0" d="M107.9,13.2c0,3.6,0,7.2,0,10.8c4.9,0,9.8,0,14.7,0
				c0,13.3,0,26.6,0,39.9c-4.9,0-9.8,0-14.7,0c0,3.6,0,7.2,0,10.8c13.9,0,27.7,0,41.6,0c0.1-3.6,0-7.2,0-10.8c-4.9,0-9.8,0-14.7,0
				c0-13.3,0-26.6,0-39.9c4.9,0,9.8,0,14.7,0c0-3.6,0-7.2,0-10.8C135.6,13.2,121.7,13.2,107.9,13.2"/>
			<path id="Fill-3" sketch:type="MSShapeGroup" class="st0" d="M171.3,0h86v87.9h-86V0 M190.7,13.8v60.3h11.9V50.5
				c6.5,0,12.9,0,19.4,0c2.4-0.2,5.2,1.5,5.1,4.1c0.3,6.5,0.9,13,1.3,19.5c3.8,0,7.6,0,11.3,0c-1.1-7.4,0.2-15-1.8-22.2
				c-1.1-3.8-5.3-4.6-8.5-5.6c2.4-1.3,5.5-1.4,7.3-3.8c2.6-3.2,2.7-7.6,2.7-11.5c0-4.6,0.1-9.7-2.9-13.6c-2.3-3.2-6.7-3.7-10.4-3.7
				C214.4,13.8,202.5,13.8,190.7,13.8"/>
			<path id="Fill-4" sketch:type="MSShapeGroup" class="st0" d="M272.7,13.2c0,3.6,0,7.2,0,10.8c2.7,0.1,5.5,0.1,8.2,0
				c0.1,13.3,0.1,26.6,0,39.9c-2.7,0-5.5,0-8.2,0c0,3.6,0,7.2,0,10.8c17.2,0.1,34.5,0.1,51.7,0c0.1-7.1,0-14.2,0-21.3
				c-3.7,0-7.5,0-11.2,0c0,3.5,0,7,0,10.5c-6.8,0-13.6,0-20.5,0c-0.1-5.3,0-10.5-0.1-15.8h16.1V37.9h-16.1c0-4.6,0-9.2,0-13.8
				c6.6,0,13.3,0,19.9,0c0,3.1,0,6.1,0,9.2h11c0-6.7,0-13.3,0-20C306.6,13.2,289.7,13.2,272.7,13.2"/>
			<path id="Fill-5" sketch:type="MSShapeGroup" class="st0" d="M342.8,0h87.1v87.9h-87.1V0 M362.2,13.8v60.3c10,0,20,0,30.1,0
				c6.2-0.1,13.4-1.3,17.1-6.8c4.3-6.9,3.7-15.4,4.4-23.3c-0.8-7.8-0.1-16.4-4.4-23.3c-3.5-5.2-10.1-6.5-15.9-6.8
				C383.1,13.7,372.7,13.9,362.2,13.8"/>
			<path id="Fill-6" sketch:type="MSShapeGroup" class="st0" d="M107.9,13.2c13.9,0,27.7,0,41.6,0c0.1,3.6,0.1,7.2,0,10.8
				c-4.9,0-9.8,0-14.7,0c0,13.3,0,26.6,0,39.9c4.9,0,9.8,0,14.7,0c0,3.6,0,7.2,0,10.8c-13.9,0-27.7,0-41.6,0
				c-0.1-3.6-0.1-7.2,0-10.8c4.9,0,9.8,0,14.7,0c0-13.3,0-26.6,0-39.9c-4.9,0-9.8,0-14.7,0C107.8,20.4,107.8,16.8,107.9,13.2"/>
			<path id="Fill-7" sketch:type="MSShapeGroup" class="st0" d="M272.7,13.2c17-0.1,34-0.1,51,0c0,6.7,0,13.3,0,20h-11
				c0-3.1,0-6.1,0-9.2c-6.6,0-13.3,0-19.9,0c0,4.6,0,9.2,0,13.8h16.1v10.3h-16.1c0,5.3-0.1,10.5,0.1,15.8c6.8-0.1,13.6,0,20.5,0
				c0-3.5,0-7,0-10.5c3.7,0,7.5,0,11.2,0c0,7.1,0.1,14.2,0,21.3c-17.2,0.1-34.5,0.1-51.7,0c-0.1-3.6,0-7.2,0-10.8c2.7,0,5.5,0,8.2,0
				c0.1-13.3,0.1-26.6,0-39.9c-2.7,0-5.5,0-8.2,0C272.6,20.4,272.6,16.8,272.7,13.2"/>
			<path id="Fill-8" sketch:type="MSShapeGroup" class="st0" d="M202.6,23.7c7.7,0.1,15.3-0.2,23,0.2c2.9,2.1,2.4,6.3,2.5,9.5
				c-0.2,2.9-0.2,7.5-4,7.7c-7.1,0.4-14.3,0.1-21.4,0.2V23.7"/>
			<path id="Fill-9" sketch:type="MSShapeGroup" class="st0" d="M374.2,23.7c6.5,0,12.9,0,19.4,0c2.9,0,6.2,1.4,7.1,4.3
				c2,5.8,1.2,12.1,1.4,18.1c-0.2,4.8,0.3,9.9-1.7,14.4c-1.4,2.9-4.9,3.7-7.8,3.6c-6.1,0-12.2,0-18.3,0V23.7"/>
		</g>
	</g>
</g>
</svg>
